<?xml version="1.0" encoding="UTF-8"?>
<!DOCTYPE svg PUBLIC "-//W3C//DTD SVG 1.1//EN" "http://www.w3.org/Graphics/SVG/1.1/DTD/svg11.dtd">
<svg xmlns="http://www.w3.org/2000/svg" xml:space="preserve" width="556px" height="110px" version="1.1" style="shape-rendering:geometricPrecision; text-rendering:geometricPrecision; image-rendering:optimizeQuality; fill-rule:evenodd; clip-rule:evenodd"
viewBox="0 0 18449399 3644859"
 xmlns:xlink="http://www.w3.org/1999/xlink">
 <defs>
  <style type="text/css">
   <![CDATA[
    .fil0 {fill:#FF6600}
    .fil1 {fill:black;fill-rule:nonzero}
   ]]>
  </style>
 </defs>
 <g id="Слой_x0020_1">
  <metadata id="CorelCorpID_0Corel-Layer"/>
  <polygon class="fil0" points="0,131360 2240529,131360 2240529,2558604 0,2558604 "/>
  <path class="fil1" d="M956492 2218121l340880 0 0 -184844c261662,0 441704,-62414 571334,-172840 144034,-122429 230454,-309673 230454,-535326 0,-225653 -86420,-403295 -232854,-518522 -127230,-103224 -307272,-163238 -568934,-163238l0 -148835 -340880 0 0 148835c-264062,0 -444104,60014 -571334,165639 -144034,117628 -230454,292869 -230454,516121 0,225653 86420,408096 228054,530525 129630,112826 309672,177641 573734,177641l0 184844zm0 -436903c-285667,-4801 -456107,-165639 -456107,-456107 0,-268863 165639,-429701 456107,-429701l0 885808zm340880 0l0 -885808c292869,0 456107,160838 456107,429701 0,290468 -168039,451306 -456107,456107zm1097058 412897l998634 0 0 -280866 -664956 0 0 -441704 604942 0 0 -271263 -604942 0 0 -403295 657755 0 0 -278465 -991433 0 0 1675593zm1154671 367286l312073 0 0 -367286 1082654 0 0 367286 312074 0 0 -652953 -184844 0 0 -1389926 -1152270 0 0 530524c0,338480 -69617,645752 -220852,859402l-148835 0 0 652953zm499317 -652953c124829,-204048 187244,-492116 187244,-804189l0 -304871 494516 0 0 1109060 -681760 0zm2191715 314474c499317,0 823393,-338480 823393,-873805 0,-530525 -312073,-859402 -804189,-859402 -525723,0 -832995,314474 -832995,869004 0,530524 319274,864203 813791,864203zm9602 -261662c-278466,0 -460908,-237655 -460908,-602541 0,-367286 182442,-607343 451306,-607343 280866,0 463308,230454 463308,604942 0,360085 -187244,604942 -453706,604942zm1137867 232855l338479 0 0 -638550 84020 0c384090,0 705766,-122429 705766,-523323 0,-415297 -333679,-513720 -705766,-513720l-422499 0 0 1675593zm338479 -895410l0 -525724 60014 0c252060,0 384091,62415 384091,261662 0,213650 -156037,264062 -384091,264062l-60014 0zm1774017 924217c499317,0 823393,-338480 823393,-873805 0,-530525 -312073,-859402 -804189,-859402 -525723,0 -832995,314474 -832995,869004 0,530524 319275,864203 813791,864203zm9602 -261662c-278465,0 -460908,-237655 -460908,-602541 0,-367286 182443,-607343 451306,-607343 280866,0 463309,230454 463309,604942 0,360085 -187244,604942 -453707,604942zm1137867 232855l520922 0c331278,0 657755,-110426 657755,-458508 0,-220851 -146434,-367286 -391292,-398493l0 -4801c232855,-48012 348082,-192045 348082,-384090 0,-309673 -247258,-429701 -621746,-429701l-513721 0 0 1675593zm326477 -252059l0 -482513 93622 0c285667,0 420098,67215 420098,237655 0,175242 -129630,244858 -403294,244858l-110426 0zm0 -717769l0 -456107 122429 0c194445,0 355283,40810 355283,225653 0,192045 -158437,230454 -388891,230454l-88821 0zm1997269 986632c144034,0 285667,-19205 391292,-55213l-12003 -290468c-132031,50412 -247258,64815 -369687,64815 -314474,0 -559331,-211250 -559331,-583337 0,-369687 220851,-571334 554530,-571334 129630,0 235255,21605 355283,76818l24006 -290468c-139233,-48011 -261662,-60014 -405695,-60014 -506519,0 -888209,333678 -888209,854600 0,537727 369687,854601 909814,854601zm1003435 -823393l4801 0c88821,127230 204048,280866 266463,355283l369687 451306 456107 0 -775382 -893010 708166 -782583 -420099 0 -314473 369687c-64816,76818 -223253,273664 -290469,360084l-4801 0 0 -729771 -338479 0 0 1675593 338479 0 0 -806589zm1277100 806589l364886 0 715368 -1262696 4801 0c-9602,165639 -19205,472911 -19205,648152l0 614544 331278 0 0 -1675593 -372087 0 -708167 1262696 -4801 0c9603,-165639 19205,-472911 19205,-648152l0 -614544 -331278 0 0 1675593zm1800423 0l364885 0 715368 -1262696 4801 0c-9602,165639 -19204,472911 -19204,648152l0 614544 331278 0 0 -1675593 -372088 0 -708166 1262696 -4801 0c9602,-165639 19204,-472911 19204,-648152l0 -614544 -331277 0 0 1675593zm688961 -1788420c232855,0 357684,-168039 410497,-309672l-146435 -96023c-45610,86420 -117627,177642 -261661,177642 -148835,0 -216051,-84020 -259261,-177642l-146434 96023c43210,146434 163238,309672 403294,309672zm-13423176 3116735l109632 0 0 -279269 1597 0c31208,44817 55213,76818 75221,102431l135226 176838 138438 0 -236861 -294466 214453 -264071 -132834 0 -104018 137635c-16804,21605 -60014,80022 -89625,120028l-1597 0 0 -257663 -109632 0 0 257663 -1597 0c-29610,-40006 -72820,-98423 -89624,-120028l-104028 -137635 -132825 0 214444 264071 -236852 294466 138429 0 135235 -176838c20008,-25613 44014,-57614 75221,-102431l1597 0 0 279269zm520922 0l332885 0 0 -93622 -221655 0 0 -147238 201647 0 0 -90418 -201647 0 0 -134431 219245 0 0 -92828 -330475 0 0 558537zm468110 5604c149639,0 161641,-168039 163239,-470519l162444 0 0 464915 113620 0 0 -558537 -383286 0c-2401,347287 -10406,468913 -89625,468913 -14403,0 -32804,-2401 -45610,-7996l-3998 91222c20802,7995 50412,12002 83216,12002zm573735 -5604l332884 0 0 -93622 -221655 0 0 -147238 201648 0 0 -90418 -201648 0 0 -134431 219245 0 0 -92828 -330474 0 0 558537zm568934 9602c127229,0 221655,-49608 221655,-171243 0,-64815 -45611,-124026 -117628,-133628l0 -1598c67216,-18410 107222,-62414 107222,-122438 0,-107222 -88017,-148031 -200050,-148031 -48805,0 -112023,10405 -160034,24809l8799 88017c31207,-15207 89624,-25603 132031,-25603 50411,0 107231,13600 107231,70411 0,70419 -84020,81628 -138439,81628 -6398,0 -18401,0 -28807,-803l0 84823c17608,-2401 32814,-2401 41613,-2401 50412,0 131228,4801 131228,82413 0,68823 -64815,82423 -118421,82423 -48012,0 -99227,-9602 -140036,-31207l-9603 98423c43210,15206 101627,24005 163239,24005zm574538 0c166442,0 274467,-112826 274467,-291271 0,-176839 -104027,-286471 -268069,-286471 -175241,0 -277662,104831 -277662,289675 0,176838 106428,288067 271264,288067zm3204 -87223c-92829,0 -153637,-79219 -153637,-200844 0,-122429 60808,-202451 150433,-202451 93622,0 154439,76818 154439,201647 0,120029 -62415,201648 -151235,201648zm379289 77621l183246 0c129630,0 213650,-57613 213650,-167236 0,-110426 -83226,-164845 -215257,-164845l-68010 0 0 -135235 234452 0 0 -91221 -348081 0 0 558537zm113629 -84020l0 -166442 52009 0c76015,0 116031,24006 116031,79219 0,66422 -44817,87223 -107232,87223l-60808 0zm387294 84020l332885 0 0 -93622 -221655 0 0 -147238 201647 0 0 -90418 -201647 0 0 -134431 219245 0 0 -92828 -330475 0 0 558537zm550533 0l114424 0 0 -464915 154439 0 0 -93622 -423303 0 0 93622 154440 0 0 464915zm576135 9602c166442,0 274468,-112826 274468,-291271 0,-176839 -104028,-286471 -268070,-286471 -175241,0 -277662,104831 -277662,289675 0,176838 106429,288067 271264,288067zm3204 -87223c-92828,0 -153636,-79219 -153636,-200844 0,-122429 60808,-202451 150432,-202451 93622,0 154439,76818 154439,201647 0,120029 -62414,201648 -151235,201648zm379289 77621l113630 0 0 -241654 223252 0 0 241654 113630 0 0 -558537 -113630 0 0 222458 -223252 0 0 -222458 -113630 0 0 558537zm584944 0l113629 0 0 -241654 223253 0 0 241654 113630 0 0 -558537 -113630 0 0 222458 -223253 0 0 -222458 -113629 0 0 558537zm584943 0l175241 0c129631,0 213651,-56810 213651,-172841 0,-116030 -83217,-169636 -215248,-169636l-60014 0 0 -216060 -113630 0 0 558537zm113630 -88017l0 -168843 44004 0c76024,0 116030,21605 116030,80022 0,70410 -44807,88821 -107222,88821l-52812 0zm334482 88017l113620 0 0 -558537 -113620 0 0 558537zm248052 0l121625 0 238459 -420902 1607 0c-3204,55213 -6408,157643 -6408,216051l0 204851 110426 0 0 -558537 -124026 0 -236059 420902 -1597 0c3195,-55213 6399,-157634 6399,-216051l0 -204851 -110426 0 0 558537zm229650 -596143c77622,0 119235,-56016 136842,-103224l-48815 -32011c-15206,28807 -39212,59220 -87223,59220 -49609,0 -72017,-28013 -86421,-59220l-48814 32011c14403,48814 54419,103224 134431,103224zm690569 605745c127230,0 221655,-49608 221655,-171243 0,-64815 -45611,-124026 -117628,-133628l0 -1598c67216,-18410 107222,-62414 107222,-122438 0,-107222 -88017,-148031 -200050,-148031 -48805,0 -112023,10405 -160034,24809l8799 88017c31207,-15207 89624,-25603 132031,-25603 50412,0 107231,13600 107231,70411 0,70419 -84019,81628 -138439,81628 -6398,0 -18401,0 -28806,-803l0 84823c17607,-2401 32814,-2401 41613,-2401 50411,0 131227,4801 131227,82413 0,68823 -64815,82423 -118421,82423 -48011,0 -99227,-9602 -140036,-31207l-9602 98423c43210,15206 101627,24005 163238,24005zm257663 -9602l116031 0 48805 -128827 232864 0 48805 128827 122429 0 -222449 -558537 -127230 0 -219255 558537zm193643 -213650l46414 -130434c12003,-33608 32804,-97620 40809,-126426l1598 0c7201,28806 26406,92818 38409,126426l46414 130434 -173644 0zm450512 213650l173644 0c110426,0 219254,-36812 219254,-152833 0,-73623 -48814,-122428 -130433,-132834l0 -1597c77621,-16010 116030,-64022 116030,-128033 0,-103225 -82423,-143240 -207252,-143240l-171243 0 0 558537zm108829 -84020l0 -160837 31207 0c95219,0 140026,22408 140026,79218 0,58417 -43210,81619 -134431,81619l-36802 0zm0 -239253l0 -152039 40809 0c64815,0 118422,13600 118422,75212 0,64021 -52813,76827 -129631,76827l-29600 0zm636952 332875c166442,0 274468,-112826 274468,-291271 0,-176839 -104028,-286471 -268069,-286471 -175242,0 -277662,104831 -277662,289675 0,176838 106428,288067 271263,288067zm3204 -87223c-92828,0 -153636,-79219 -153636,-200844 0,-122429 60808,-202451 150432,-202451 93622,0 154440,76818 154440,201647 0,120029 -62415,201648 -151236,201648zm300874 200050l104018 0 0 -122429 360888 0 0 122429 104027 0 0 -217648 -61611 0 0 -463318 -384099 0 0 176847c0,112827 -23203,215248 -73615,286471l-49608 0 0 217648zm166433 -217648c41613,-68019 62414,-164042 62414,-268069l0 -101627 164845 0 0 369696 -227259 0z"/>
 </g>
</svg>
