<?xml version="1.0" encoding="UTF-8"?>
<!DOCTYPE svg PUBLIC "-//W3C//DTD SVG 1.1//EN" "http://www.w3.org/Graphics/SVG/1.1/DTD/svg11.dtd">
<!-- Creator: CorelDRAW X8 -->
<svg xmlns="http://www.w3.org/2000/svg" xml:space="preserve" width="40px" height="40px" version="1.1" style="shape-rendering:geometricPrecision; text-rendering:geometricPrecision; image-rendering:optimizeQuality; fill-rule:evenodd; clip-rule:evenodd"
viewBox="0 0 186480 186480"
 xmlns:xlink="http://www.w3.org/1999/xlink">
 <defs>
  <style type="text/css">
   <![CDATA[
    .fil1 {fill:black}
    .fil0 {fill:#FFB900}
   ]]>
  </style>
 </defs>
 <g id="Слой_x0020_1">
  <metadata id="CorelCorpID_0Corel-Layer"/>
  <rect class="fil0" width="186480" height="186480"/>
  <path class="fil1" d="M60945 119700c99,105 196,205 295,311 96,104 190,207 286,313l12 1c37683,39961 67217,28880 75385,22233 8214,-6681 16731,-10914 9577,-18585 -7152,-7670 -21728,-21132 -32517,-11733 -10731,9353 -16036,13677 -35058,-6620 -18913,-20384 -13602,-24698 -2212,-33346 11448,-8691 -828,-24025 -7982,-31695 -7153,-7671 -12809,-370 -21022,6312 -8168,6647 -23972,32453 13236,72797l0 12z"/>
 </g>
</svg>
