<?xml version="1.0" encoding="UTF-8"?>
<!DOCTYPE svg PUBLIC "-//W3C//DTD SVG 1.0//EN" "http://www.w3.org/TR/2001/REC-SVG-20010904/DTD/svg10.dtd">
<svg xmlns="http://www.w3.org/2000/svg" xml:space="preserve" width="1114px" height="220px" version="1.0" style="shape-rendering:geometricPrecision; text-rendering:geometricPrecision; image-rendering:optimizeQuality; fill-rule:evenodd; clip-rule:evenodd"
viewBox="0 0 19883316 3928121"
 xmlns:xlink="http://www.w3.org/1999/xlink">
 <defs>
  <style type="text/css">
   <![CDATA[
    .fil0 {fill:#FFB900}
    .fil1 {fill:black;fill-rule:nonzero}
   ]]>
  </style>
 </defs>
 <g id="Слой_x0020_1">
  <metadata id="CorelCorpID_0Corel-Layer"/>
  <polygon class="fil0" points="0,141569 603666,141569 1207353,141569 1811019,141569 2414664,141569 2414664,795532 2414664,1449516 2414664,2103478 2414664,2757441 1810998,2757441 1207332,2757441 603666,2757441 0,2757441 0,2103478 0,1449495 0,795532 "/>
  <path class="fil1" d="M1030840 2390497l45932 0 45910 0 45931 0 45910 0 45932 0 45910 0 45931 0 45911 0 0 -24906 0 -24906 0 -24906 0 -24885 0 -24906 0 -24905 0 -24906 0 -24885c35260,0 69129,-1054 101690,-3121 32561,-2067 63835,-5167 93845,-9258 30009,-4091 58795,-9174 86379,-15205 27606,-6031 54030,-13012 79315,-20941 25328,-7909 49517,-16766 72651,-26509 23134,-9764 45257,-20435 66366,-31949 21110,-11515 41250,-23915 60483,-37138 19233,-13222 37538,-27310 55021,-42156 19380,-16491 37833,-34101 55210,-52722 17398,-18621 33805,-38276 49074,-58901 15268,-20646 29461,-42262 42493,-64806 13033,-22544 24927,-46015 35598,-70331 10650,-24336 20119,-49537 28301,-75540 8204,-26023 15121,-52869 20688,-80453 5589,-27585 9828,-55928 12696,-84967 2847,-29060 4302,-58817 4302,-89206 0,-30410 -1455,-59997 -4302,-88741 -2868,-28765 -7128,-56687 -12717,-83723 -5588,-27035 -12547,-53228 -20772,-78471 -8225,-25285 -17757,-49664 -28512,-73115 -10734,-23429 -22755,-45910 -35978,-67399 -13201,-21511 -27605,-42030 -43105,-61580 -15479,-19570 -32097,-38170 -49727,-55800 -17609,-17631 -36273,-34291 -55843,-50002 -17209,-13792 -35303,-26930 -54325,-39267 -19001,-12379 -38972,-23999 -59934,-34839 -20941,-10840 -42895,-20878 -65924,-30115 -23008,-9215 -47091,-17630 -72292,-25159 -25201,-7549 -51541,-14234 -79062,-19992 -27521,-5778 -56244,-10650 -86211,-14593 -29967,-3923 -61199,-6917 -93739,-8921 -32540,-1982 -66409,-3036 -101669,-3036l0 -20056 0 -20034 0 -20056 0 -20055 0 -20055 0 -20035 0 -20055 0 -20056 -45932 0 -45910 0 -45931 0 -45911 0 -45931 0 -45910 0 -45932 0 -45910 0 0 20056 0 20055 0 20056 0 20034 0 20055 0 20056 0 20055 0 20035c-35577,0 -69740,1033 -102554,3015 -32794,1983 -64258,4977 -94436,8879 -30178,3922 -59070,8794 -86738,14593 -27669,5778 -54135,12485 -79442,20098 -25306,7592 -49432,16111 -72482,25475 -23029,9384 -44982,19634 -65923,30684 -20941,11051 -40891,22945 -59871,35577 -19001,12653 -37074,26087 -54304,40195 -19359,15901 -37770,32751 -55126,50529 -17377,17799 -33763,36547 -49031,56180 -15268,19655 -29440,40259 -42494,61727 -13033,21468 -24927,43865 -35619,67147 -10671,23261 -20140,47407 -28343,72440 -8204,25032 -15121,50929 -20709,77670 -5589,26761 -9849,54345 -12717,82773 -2868,28428 -4323,57699 -4323,87771 0,30389 1455,60082 4302,88974 2847,28913 7086,57045 12632,84397 5568,27352 12442,53903 20583,79610 8140,25708 17546,50592 28132,74612 10587,23999 22396,47134 35303,69361 12927,22228 26993,43549 42072,63920 15121,20393 31275,39858 48420,58332 17166,18474 35302,36020 54345,52553 17483,15163 35788,29546 55042,43085 19233,13539 39394,26234 60546,38044 21131,11809 43274,22776 66472,32793 23176,10038 47428,19169 72819,27331 25370,8161 51879,15373 79589,21616 27711,6242 56645,11493 86844,15732 30178,4218 61642,7444 94457,9595 32814,2130 66977,3248 102554,3248l0 24906 0 24906 0 24906 0 24884 0 24906 0 24906 0 24906 0 24885zm0 -470849c-38487,-654 -75034,-3923 -109535,-9786 -34480,-5841 -66915,-14277 -97156,-25180 -30262,-10945 -58352,-24399 -84144,-40300 -25792,-15922 -49306,-34312 -70394,-55063 -21110,-20772 -39795,-43970 -55970,-69488 -16175,-25538 -29841,-53438 -40849,-83595 -11008,-30178 -19402,-62655 -25011,-97367 -5631,-34712 -8499,-71660 -8499,-110780 0,-36230 2784,-70647 8288,-103103 5483,-32476 13687,-63013 24505,-91504 10798,-28491 24231,-54957 40195,-79251 15964,-24295 34459,-46459 55400,-66346 20942,-19886 44308,-37517 70057,-52764 25729,-15247 53861,-28132 84229,-38508 30389,-10397 63034,-18305 97873,-23598 34839,-5293 71870,-8014 111011,-8014l0 119320 0 119342 0 119320 0 119341 0 119321 0 119341 0 119341 0 119321zm367367 0l0 -119342 0 -119341 0 -119320 0 -119321 0 -119341 0 -119341 0 -119321 0 -119320c39457,0 76742,2699 111749,8014 35028,5293 67779,13222 98232,23598 30431,10376 58542,23261 84270,38508 25707,15247 49053,32878 69888,52764 20857,19887 39247,42030 55105,66325 15859,24315 29187,50781 39900,79272 10692,28491 18812,59028 24231,91504 5441,32477 8183,66873 8183,103103 0,39120 -2847,76068 -8394,110780 -5546,34691 -13834,67189 -24737,97367 -10924,30157 -24484,58057 -40532,83595 -16070,25518 -34670,48716 -55696,69488 -21004,20772 -44455,39141 -70225,55042 -25771,15922 -53861,29376 -84187,40300 -30304,10924 -62865,19360 -97514,25201 -34670,5842 -71470,9132 -110273,9786zm1182320 444973l134547 0 134525 0 134525 0 134526 0 134546 0 134525 0 134526 0 134546 0 0 -37834 0 -37833 0 -37854 0 -37812 0 -37855 0 -37833 0 -37833 0 -37833 -89585 0 -89585 0 -89585 0 -89564 0 -89585 0 -89586 0 -89585 0 -89564 0 0 -59513 0 -59491 0 -59513 0 -59491 0 -59513 0 -59512 0 -59492 0 -59512 81487 0 81487 0 81508 0 81487 0 81487 0 81509 0 81487 0 81508 0 0 -36547 0 -36547 0 -36547 0 -36526 0 -36546 0 -36547 0 -36547 0 -36526 -81508 0 -81487 0 -81509 0 -81487 0 -81487 0 -81508 0 -81487 0 -81487 0 0 -54346 0 -54324 0 -54325 0 -54325 0 -54345 0 -54325 0 -54325 0 -54324 88615 0 88594 0 88615 0 88615 0 88615 0 88594 0 88615 0 88615 0 0 -37517 0 -37517 0 -37517 0 -37517 0 -37496 0 -37517 0 -37517 0 -37517 -133576 0 -133555 0 -133576 0 -133556 0 -133555 0 -133555 0 -133576 0 -133556 0 0 225734 0 225714 0 225734 0 225734 0 225734 0 225713 0 225735 0 225713zm1244428 395836l42030 0 42051 0 42051 0 42030 0 42051 0 42030 0 42051 0 42030 0 0 -49474 0 -49496 0 -49474 0 -49474 0 -49474 0 -49496 0 -49474 0 -49474 145849 0 145850 0 145850 0 145850 0 145850 0 145850 0 145850 0 145850 0 0 49495 0 49474 0 49475 0 49474 0 49474 0 49495 0 49475 0 49474 42051 0 42030 0 42051 0 42030 0 42051 0 42030 0 42051 0 42030 0 0 -87961 0 -87962 0 -87961 0 -87961 0 -87961 0 -87962 0 -87961 0 -87961 -24906 0 -24906 0 -24906 0 -24884 0 -24906 0 -24906 0 -24906 0 -24885 0 0 -187269 0 -187226 0 -187247 0 -187247 0 -187247 0 -187226 0 -187248 0 -187247 -155234 0 -155235 0 -155213 0 -155234 0 -155235 0 -155213 0 -155235 0 -155234 0 0 71470 0 71470 0 71470 0 71470 0 71469 0 71470 0 71470 0 71470c0,45594 -1181,90661 -3543,135074 -2362,44413 -5926,88193 -10713,131151 -4787,42958 -10798,85156 -18073,126406 -7255,41270 -15775,81634 -25560,120902 -9764,39288 -20814,77543 -33172,114596 -12358,37053 -26024,72946 -40997,107490 -14973,34564 -31275,67821 -48926,99623 -17651,31781 -36652,62170 -57024,90956l-20055 0 -20056 0 -20055 0 -20035 0 -20055 0 -20055 0 -20056 0 -20034 0 0 87961 0 87961 0 87962 0 87961 0 87961 0 87961 0 87962 0 87961zm538122 -703690c16808,-27500 32582,-56413 47302,-86591 14720,-30199 28386,-61684 40976,-94309 12611,-32645 24167,-66450 34691,-101289 10502,-34839 19971,-70732 28385,-107511 8393,-36778 15753,-74485 22059,-112951 6305,-38487 11557,-77754 15753,-117654 4197,-39921 7381,-80496 9469,-121598 2109,-41102 3163,-82753 3163,-124782l0 -41081 0 -41081 0 -41060 0 -41081 0 -41060 0 -41081 0 -41060 0 -41081 66620 0 66619 0 66620 0 66619 0 66620 0 66619 0 66619 0 66620 0 0 149414 0 149414 0 149414 0 149393 0 149414 0 149393 0 149414 0 149414 -91863 0 -91841 0 -91842 0 -91842 0 -91841 0 -91842 0 -91841 0 -91842 0zm2362048 338896c67273,0 131594,-5694 192646,-16807 61052,-11093 118856,-27606 173033,-49201 54219,-21616 104853,-48314 151586,-79821 46754,-31527 89606,-67863 128241,-108670 38635,-40828 73073,-86169 102998,-135706 29925,-49538 55358,-103314 75919,-160971 20562,-57657 36315,-119257 46902,-184421 10607,-65185 16069,-133998 16069,-206101 0,-71470 -5272,-139565 -15500,-203970 -10228,-64405 -25433,-125162 -45341,-181975 -19908,-56813 -44518,-109683 -73536,-158356 -29040,-48694 -62508,-93191 -100088,-133197 -37580,-40026 -79315,-75582 -124930,-106392 -45594,-30832 -95068,-56919 -148127,-77987 -53060,-21067 -109704,-37158 -169638,-47956 -59977,-10818 -123243,-16364 -189525,-16364 -70816,0 -137984,5293 -201250,15732 -63266,10418 -122695,26002 -178053,46564 -55358,20540 -106667,46079 -153737,76447 -47070,30367 -89901,65565 -128304,105422 -38403,39837 -72377,84377 -101732,133408 -29377,49052 -54114,102597 -74064,160507 -19950,57888 -35113,120163 -45256,186614 -10165,66472 -15353,137140 -15353,211837 0,71470 5378,139650 15838,204181 10439,64553 25960,125500 46268,182566 20288,57045 45341,110231 74866,159220 29545,48968 63540,93803 101711,134125 38149,40342 80474,76214 126659,107341 46184,31106 96228,57488 149836,78809 53586,21321 110758,37623 171156,48568 60419,10945 124107,16554 190706,16554zm10354 -281978c-37517,0 -73410,-4028 -107510,-11788 -34080,-7782 -66388,-19318 -96713,-34396 -30305,-15079 -58648,-33700 -84840,-55611 -26150,-21911 -50192,-47155 -71850,-75435 -21658,-28301 -40996,-59660 -57783,-93866 -16787,-34206 -31064,-71280 -42620,-110927 -11557,-39647 -20414,-81909 -26361,-126532 -5969,-44645 -9048,-91673 -9048,-140831 0,-49474 3079,-96819 9005,-141780 5947,-44961 14784,-87539 26235,-127482 11493,-39963 25644,-77290 42262,-111791 16618,-34459 35703,-66113 57024,-94647 21342,-28533 44940,-53987 70626,-76109 25665,-22101 53397,-40891 82984,-56117 29588,-15226 61031,-26867 94141,-34712 33109,-7845 67884,-11894 104094,-11894 37854,0 74021,3880 108375,11451 34333,7592 66851,18874 97346,33658 30494,14783 58985,33109 85304,54767 26276,21637 50402,46627 72145,74760 21742,28132 41123,59428 57973,93676 16828,34248 31148,71491 42725,111496 11578,40027 20435,82837 26404,128262 5968,45404 9047,93424 9047,143889 0,48504 -3143,95089 -9216,139439 -6074,44350 -15100,86485 -26804,126132 -11683,39647 -26087,76826 -42958,111243 -16892,34396 -36230,66071 -57804,94668 -21574,28617 -45404,54219 -71259,76510 -25834,22269 -53713,41249 -83364,56665 -29651,15395 -61094,27226 -94098,35197 -33004,7972 -67547,12105 -103462,12105zm1226312 250936l45594 0 45594 0 45615 0 45573 0 45615 0 45594 0 45594 0 45594 0 0 -86021 0 -86022 0 -86021 0 -86021 0 -86021 0 -86021 0 -86021 0 -86021 11325 0 11324 0 11325 0 11303 0 11325 0 11325 0 11303 0 11325 0c51752,0 102428,-2088 151523,-6517 49095,-4449 96629,-11303 141970,-20856 45361,-9554 88572,-21848 129084,-37159 40533,-15331 78366,-33700 112972,-55442 34586,-21743 65966,-46859 93550,-75709 27584,-28807 51415,-61368 70880,-97915 19486,-36547 34648,-77164 44940,-122125 10291,-44940 15711,-94267 15711,-148275 0,-55949 -5631,-106562 -16238,-152282 -10629,-45742 -26256,-86612 -46227,-123032 -19992,-36442 -44371,-68475 -72482,-96545 -28111,-28069 -59998,-52194 -94984,-72798 -35007,-20604 -73178,-37728 -113816,-51815 -40638,-14087 -83807,-25138 -128874,-33594 -45045,-8478 -91989,-14362 -140198,-18137 -48209,-3775 -97704,-5441 -147811,-5441l-56919 0 -56918 0 -56919 0 -56918 0 -56919 0 -56918 0 -56898 0 -56919 0 0 225734 0 225714 0 225734 0 225734 0 225734 0 225713 0 225735 0 225713zm364773 -965001l0 -70817 0 -70816 0 -70837 0 -70816 0 -70816 0 -70837 0 -70816 0 -70816 8098 0 8077 0 8098 0 8077 0 8077 0 8098 0 8077 0 8077 0c33974,0 65903,1054 95785,3311 29883,2256 57741,5736 83491,10565 25770,4829 49474,11008 71069,18727 21616,7718 41123,16955 58500,27858 17377,10924 32646,23514 45742,37939 13117,14425 24083,30684 32877,48947 8794,18242 15416,38508 19824,60883 4428,22375 6664,46923 6664,73769 0,28765 -2636,54809 -7698,78323 -5082,23535 -12632,44540 -22417,63267 -9806,18748 -21869,35197 -36041,49622 -14171,14445 -30452,26846 -48652,37411 -18178,10587 -38276,19402 -60145,26614 -21848,7234 -45467,12906 -70626,17251 -25159,4344 -51900,7360 -80011,9300 -28132,1940 -57657,2784 -88362,2784l-8077 0 -8098 0 -8077 0 -8077 0 -8098 0 -8077 0 -8098 0 -8077 0zm1911908 996043c67252,0 131573,-5694 192625,-16807 61052,-11093 118856,-27606 173054,-49201 54198,-21616 104832,-48314 151586,-79821 46733,-31527 89585,-67863 128220,-108670 38635,-40828 73073,-86169 102998,-135706 29925,-49538 55358,-103314 75919,-160971 20583,-57657 36315,-119257 46923,-184421 10607,-65185 16048,-133998 16048,-206101 0,-71470 -5251,-139565 -15479,-203970 -10228,-64405 -25454,-125162 -45341,-181975 -19908,-56813 -44539,-109683 -73557,-158356 -29040,-48694 -62486,-93191 -100067,-133197 -37601,-40026 -79336,-75582 -124930,-106392 -45615,-30832 -95089,-56919 -148127,-77987 -53059,-21067 -109725,-37158 -169659,-47956 -59956,-10818 -123222,-16364 -189525,-16364 -70816,0 -137963,5293 -201250,15732 -63266,10418 -122695,26002 -178053,46564 -55337,20540 -106667,46079 -153716,76447 -47070,30367 -89922,65565 -128325,105422 -38403,39837 -72355,84377 -101732,133408 -29356,49052 -54114,102597 -74064,160507 -19929,57888 -35092,120163 -45256,186614 -10165,66472 -15332,137140 -15332,211837 0,71470 5378,139650 15817,204181 10439,64553 25981,125500 46268,182566 20288,57045 45362,110231 74887,159220 29524,48968 63540,93803 101690,134125 38149,40342 80496,76214 126659,107341 46184,31106 96249,57488 149836,78809 53607,21321 110758,37623 171177,48568 60398,10945 124086,16554 190706,16554zm10333 -281978c-37495,0 -73389,-4028 -107489,-11788 -34101,-7782 -66409,-19318 -96713,-34396 -30326,-15079 -58669,-33700 -84840,-55611 -26171,-21911 -50192,-47155 -71850,-75435 -21679,-28301 -40996,-59660 -57783,-93866 -16808,-34206 -31085,-71280 -42620,-110927 -11557,-39647 -20414,-81909 -26382,-126532 -5947,-44645 -9048,-91673 -9048,-140831 0,-49474 3079,-96819 9026,-141780 5926,-44961 14763,-87539 26235,-127482 11472,-39963 25623,-77290 42241,-111791 16618,-34459 35703,-66113 57024,-94647 21363,-28533 44961,-53987 70626,-76109 25665,-22101 53418,-40891 82984,-56117 29588,-15226 61052,-26867 94162,-34712 33109,-7845 67863,-11894 104094,-11894 37833,0 74021,3880 108354,11451 34354,7592 66873,18874 97367,33658 30494,14783 58985,33109 85283,54767 26298,21637 50423,46627 72166,74760 21742,28132 41123,59428 57952,93676 16850,34248 31148,71491 42725,111496 11599,40027 20457,82837 26425,128262 5947,45404 9047,93424 9047,143889 0,48504 -3164,95089 -9237,139439 -6074,44350 -15100,86485 -26783,126132 -11704,39647 -26108,76826 -42979,111243 -16871,34396 -36209,66071 -57804,94668 -21574,28617 -45404,54219 -71259,76510 -25834,22269 -53713,41249 -83364,56665 -29651,15395 -61073,27226 -94077,35197 -33004,7972 -67568,12105 -103483,12105zm1226312 250936l70184 0 70183 0 70163 0 70183 0 70162 0 70184 0 70183 0 70163 0c44645,0 89184,-1856 132985,-5842 43781,-3986 86823,-10101 128410,-18600 41587,-8520 81761,-19423 119805,-32983 38065,-13581 74001,-29820 107131,-48968 33152,-19149 63520,-41250 90408,-66535 26888,-25286 50318,-53777 69593,-85747 19275,-31950 34417,-67379 44729,-106520 10312,-39161 15817,-82056 15817,-128936 0,-29757 -2468,-58248 -7297,-85431 -4829,-27162 -12021,-52975 -21469,-77354 -9447,-24399 -21194,-47386 -35070,-68833 -13877,-21469 -29946,-41419 -48040,-59766 -18116,-18347 -38276,-35092 -60420,-50170 -22143,-15079 -46247,-28470 -72187,-40090 -25939,-11620 -53776,-21489 -83321,-29482 -29567,-7993 -60905,-14151 -93887,-18347l0 -654 0 -633 0 -653 0 -633 0 -654 0 -654 0 -653 0 -633c31359,-6474 60756,-14551 88172,-24147 27415,-9595 52848,-20730 76299,-33257 23472,-12526 44982,-26487 64510,-41734 19529,-15269 37096,-31844 52680,-49622 15606,-17778 29250,-36800 40933,-56898 11684,-20118 21427,-41334 29187,-63561 7782,-22249 13645,-45489 17525,-69635 3880,-24147 5821,-49221 5821,-75097 0,-41714 -4176,-80222 -12253,-115715 -8077,-35471 -20055,-67905 -35682,-97430 -15648,-29524 -34965,-56159 -57678,-80032 -22692,-23872 -48820,-45003 -78071,-63519 -29271,-18495 -61684,-34417 -97008,-47850 -35324,-13455 -73558,-24442 -114428,-33110 -40849,-8667 -84376,-15036 -130286,-19212 -45910,-4196 -94225,-6221 -144669,-6221l-69213 0 -69193 0 -69213 0 -69192 0 -69214 0 -69213 0 -69213 0 -69193 0 0 225734 0 225714 0 225734 0 225734 0 225734 0 225713 0 225735 0 225713zm351846 -271645l0 -64995 0 -65017 0 -64996 0 -64995 0 -64996 0 -65017 0 -64995 0 -64996 12632 0 12611 0 12611 0 12611 0 12611 0 12611 0 12611 0 12611 0c38487,0 74423,1139 107848,3480 33405,2341 64342,5884 92770,10713 28449,4808 54409,10945 77923,18411 23514,7465 44624,16322 63287,26571 18664,10250 34944,21954 48842,35176 13897,13202 25433,27943 34628,44245 9194,16322 16069,34227 20603,53776 4577,19549 6854,40786 6854,63751 0,23599 -2193,45447 -6580,65565 -4407,20119 -11008,38551 -19865,55337 -8857,16787 -19950,31971 -33320,45594 -13371,13603 -29019,25686 -46965,36273 -17926,10586 -38192,19697 -60778,27415 -22565,7719 -47513,14024 -74802,19022 -27289,4977 -56940,8668 -88994,11093 -32034,2404 -66493,3585 -103335,3585l-14889 0 -14868 0 -14888 0 -14868 0 -14889 0 -14867 0 -14868 0 -14888 0zm0 -773557l0 -61432 0 -61452 0 -61453 0 -61432 0 -61452 0 -61432 0 -61453 0 -61431 16512 0 16491 0 16492 0 16491 0 16492 0 16491 0 16492 0 16491 0c26192,0 51836,675 76615,2277 24801,1582 48779,4092 71618,7698 22860,3606 44603,8351 64996,14425 20392,6094 39414,13518 56792,22480 17377,8984 33130,19528 46964,31823 13835,12295 25792,26382 35556,42431 9743,16069 17335,34121 22502,54388 5145,20287 7845,42747 7845,67653 0,25875 -2679,49157 -7824,70099 -5125,20941 -12801,39541 -22734,56032 -9933,16492 -22185,30874 -36568,43401 -14361,12527 -30853,23219 -49284,32266 -18432,9047 -38804,16491 -60926,22565 -22122,6052 -46037,10755 -71512,14298 -25454,3564 -52511,6010 -80939,7529 -28427,1539 -58289,2172 -89332,2172l-11957 0 -11978 0 -11958 0 -11957 0 -11978 0 -11958 0 -11978 0 -11957 0zm2152509 1063317c19402,0 38783,-316 58016,-970 19254,-633 38402,-1603 57361,-2868 18959,-1266 37728,-2868 56265,-4766 18516,-1877 36800,-4092 54725,-6601 17947,-2489 35577,-5314 52806,-8415 17230,-3100 34080,-6516 50445,-10206 16365,-3712 32287,-7698 47639,-11979 15374,-4281 30221,-8857 44434,-13708l-1602 -39119 -1624 -39141 -1624 -39120 -1603 -39140 -1624 -39120 -1623 -39141 -1624 -39120 -1603 -39140c-17778,6790 -35282,12990 -52553,18600 -17272,5631 -34333,10692 -51183,15247 -16850,4534 -33531,8562 -50064,12126 -16534,3564 -32941,6664 -49285,9343 -16323,2657 -32582,4913 -48799,6769 -16218,1856 -32414,3353 -48610,4492 -16217,1139 -32456,1961 -48757,2509 -16302,528 -32667,781 -49158,781 -42367,0 -83554,-3585 -123222,-10587 -39647,-6980 -77775,-17461 -113964,-31253 -36188,-13813 -70478,-30959 -102491,-51352 -32013,-20371 -61748,-44012 -88826,-70773 -27078,-26762 -51520,-56645 -72946,-89564 -21426,-32920 -39816,-68876 -54831,-107743 -15015,-38867 -26656,-80665 -34543,-125246 -7866,-44603 -12000,-92032 -12000,-142160 0,-49811 3733,-96776 10945,-140851 7213,-44076 17926,-85241 31866,-123433 13981,-38213 31211,-73431 51477,-105634 20267,-32181 43570,-61347 69678,-87371 26129,-26023 55041,-48947 86548,-68686 31485,-19718 65607,-36293 102027,-49579 36442,-13286 75245,-23325 116178,-30052 40913,-6727 83976,-10122 128916,-10122 17483,0 34543,379 51267,1117 16723,738 33151,1898 49305,3438 16175,1539 32098,3543 47872,5947 15753,2404 31359,5251 46880,8562 15543,3311 30980,7107 46417,11367 15437,4281 30874,9026 46395,14298 15542,5293 31148,11071 46901,17398 15754,6348 31697,13202 47872,20646l3226 -39120 3227 -39140 3248 -39141 3226 -39120 3248 -39120 3227 -39140 3226 -39141 3227 -39120c-18748,-6453 -37222,-12337 -55485,-17630 -18284,-5314 -36357,-10059 -54303,-14298 -17926,-4239 -35767,-7972 -53545,-11262 -17799,-3289 -35556,-6136 -53333,-8540 -17778,-2426 -35598,-4450 -53545,-6116 -17946,-1666 -36019,-2995 -54282,-3986 -18284,-1012 -36779,-1729 -55527,-2172 -18748,-443 -37791,-675 -57193,-675 -68243,0 -134377,5631 -197855,16555 -63498,10924 -124339,27183 -182017,48420 -57656,21236 -112129,47491 -162911,78429 -50739,30937 -97788,66577 -140556,106582 -42747,40006 -81276,84419 -114955,132902 -33700,48483 -62613,101036 -86148,157385 -23535,56307 -41755,116410 -54071,179993 -12316,63540 -18727,130582 -18727,200765 0,72440 6221,141147 18263,205953 12020,64785 29861,125689 53080,182439 23219,56750 51836,109387 85410,157681 33573,48314 72144,92305 115208,131741 43105,39457 90745,74401 142496,104579 51752,30200 107680,55675 167277,76194 59596,20541 122926,36146 189524,46606 66599,10481 136508,15817 209264,15817zm1081432 -887373l633 0 654 0 654 0 632 0 654 0 654 0 632 0 654 0c11958,17124 24379,34712 37053,52511 12696,17820 25686,35829 38740,53860 13075,18031 26277,36062 39394,53882 13138,17799 26213,35387 39078,52532 12843,17124 25517,33806 37791,49791 12273,16006 24188,31338 35492,45784 11325,14445 22101,28027 32097,40511 9996,12485 19233,23915 27521,34016l49812 60799 49790 60799 49812 60799 49791 60799 49811 60778 49812 60799 49791 60799 49811 60799 61453 0 61431 0 61453 0 61432 0 61452 0 61432 0 61453 0 61452 0 -104473 -120291 -104453 -120311 -104453 -120290 -104452 -120312 -104474 -120290 -104453 -120312 -104453 -120290 -104452 -120312 95426 -105422 95385 -105423 95406 -105423 95405 -105423 95406 -105443 95384 -105423 95406 -105423 95405 -105423 -56602 0 -56602 0 -56581 0 -56603 0 -56602 0 -56581 0 -56602 0 -56581 0 -42368 49812 -42367 49791 -42367 49811 -42368 49791 -42367 49811 -42367 49791 -42347 49812 -42367 49811c-8731,10334 -19043,22713 -30537,36611 -11493,13897 -24188,29355 -37664,45847 -13476,16491 -27753,34037 -42452,52152 -14678,18094 -29777,36779 -44898,55527 -15099,18769 -30262,37601 -45024,56033 -14762,18410 -29187,36462 -42811,53586 -13644,17145 -26529,33405 -38276,48272 -11725,14889 -22333,28386 -31380,40027l-654 0 -632 0 -654 0 -654 0 -653 0 -633 0 -654 0 -633 0 0 -98316 0 -98295 0 -98316 0 -98315 0 -98316 0 -98295 0 -98316 0 -98316 -45615 0 -45593 0 -45594 0 -45594 0 -45615 0 -45594 0 -45594 0 -45594 0 0 225734 0 225714 0 225734 0 225734 0 225734 0 225713 0 225735 0 225713 45594 0 45594 0 45615 0 45594 0 45594 0 45594 0 45615 0 45593 0 0 -108650 0 -108670 0 -108649 0 -108671 0 -108649 0 -108671 0 -108649 0 -108649zm1376338 869258l49158 0 49158 0 49158 0 49158 0 49158 0 49158 0 49158 0 49157 0 96376 -170102 96355 -170102 96375 -170102 96376 -170102 96376 -170102 96354 -170103 96376 -170102 96376 -170102 654 0 632 0 654 0 633 0 653 0 654 0 654 0 633 0c-1287,22291 -2594,47007 -3860,73516 -1265,26508 -2530,54831 -3732,84376 -1203,29545 -2383,60335 -3501,91778 -1097,31444 -2172,63541 -3142,95701 -949,32161 -1856,64426 -2637,96207 -780,31739 -1476,63035 -2045,93213 -548,30199 -1012,59343 -1308,86822 -295,27479 -464,53312 -464,76911l0 82773 0 82795 0 82794 0 82774 0 82794 0 82795 0 82794 0 82774 44624 0 44624 0 44645 0 44624 0 44624 0 44624 0 44623 0 44624 0 0 -225735 0 -225713 0 -225734 0 -225713 0 -225734 0 -225734 0 -225714 0 -225734 -50128 0 -50128 0 -50107 0 -50128 0 -50128 0 -50128 0 -50128 0 -50128 0 -95405 170102 -95406 170102 -95384 170123 -95406 170081 -95406 170123 -95405 170103 -95385 170102 -95405 170102 -654 0 -633 0 -654 0 -653 0 -654 0 -633 0 -653 0 -633 0c1286,-22333 2594,-47028 3859,-73537 1287,-26487 2531,-54810 3733,-84376 1223,-29546 2404,-60335 3501,-91757 1117,-31444 2172,-63562 3121,-95722 970,-32182 1877,-64448 2657,-96186 780,-31781 1476,-63056 2045,-93234 549,-30199 992,-59322 1308,-86801 295,-27479 464,-53312 464,-76911l0 -82794 0 -82795 0 -82773 0 -82795 0 -82794 0 -82774 0 -82794 0 -82795 -44624 0 -44624 0 -44645 0 -44624 0 -44623 0 -44624 0 -44645 0 -44624 0 0 225734 0 225714 0 225734 0 225734 0 225734 0 225713 0 225735 0 225713zm1940357 0l49158 0 49158 0 49158 0 49158 0 49157 0 49158 0 49158 0 49158 0 96376 -170102 96354 -170102 96376 -170102 96376 -170102 96376 -170102 96354 -170103 96376 -170102 96376 -170102 653 0 633 0 654 0 632 0 654 0 654 0 654 0 632 0c-1286,22291 -2594,47007 -3859,73516 -1265,26508 -2531,54831 -3733,84376 -1202,29545 -2383,60335 -3500,91778 -1118,31444 -2173,63541 -3143,95701 -949,32161 -1855,64426 -2636,96207 -780,31739 -1476,63035 -2045,93213 -549,30199 -1013,59343 -1308,86822 -295,27479 -464,53312 -464,76911l0 82773 0 82795 0 82794 0 82774 0 82794 0 82795 0 82794 0 82774 44624 0 44624 0 44624 0 44624 0 44644 0 44624 0 44624 0 44624 0 0 -225735 0 -225713 0 -225734 0 -225713 0 -225734 0 -225734 0 -225714 0 -225734 -50128 0 -50128 0 -50128 0 -50107 0 -50149 0 -50107 0 -50128 0 -50128 0 -95406 170102 -95405 170102 -95385 170123 -95405 170081 -95406 170123 -95406 170103 -95384 170102 -95406 170102 -653 0 -633 0 -654 0 -654 0 -653 0 -633 0 -654 0 -632 0c1286,-22333 2594,-47028 3859,-73537 1265,-26487 2531,-54810 3733,-84376 1223,-29546 2404,-60335 3500,-91757 1118,-31444 2172,-63562 3121,-95722 971,-32182 1877,-64448 2658,-96186 780,-31781 1476,-63056 2024,-93234 570,-30199 1012,-59322 1329,-86801 295,-27479 464,-53312 464,-76911l0 -82794 0 -82795 0 -82773 0 -82795 0 -82794 0 -82774 0 -82794 0 -82795 -44624 0 -44624 0 -44645 0 -44624 0 -44624 0 -44623 0 -44645 0 -44624 0 0 225734 0 225714 0 225734 0 225734 0 225734 0 225713 0 225735 0 225713zm742514 -1927409c31380,0 60947,-2825 88742,-8077 27795,-5230 53861,-12927 78260,-22586 24400,-9679 47134,-21384 68265,-34691 21131,-13286 40680,-28195 58711,-44265 18010,-16091 34522,-33384 49601,-51436 15057,-18073 28723,-36926 40975,-56138 12274,-19212 23177,-38824 32793,-58374 9617,-19549 17947,-39098 25054,-58162l-19718 -12949 -19739 -12927 -19740 -12928 -19718 -12948 -19718 -12928 -19739 -12927 -19718 -12949 -19718 -12927c-6158,11641 -12737,23366 -19865,34965 -7128,11599 -14805,23092 -23114,34227 -8309,11156 -17250,21996 -26930,32308 -9659,10292 -20076,20098 -31317,29145 -11240,9047 -23303,17377 -36294,24779 -12990,7381 -26909,13877 -41840,19191 -14931,5335 -30895,9553 -47977,12421 -17060,2847 -35260,4408 -54662,4408 -20055,0 -38740,-1434 -56138,-4091 -17419,-2679 -33616,-6601 -48652,-11641 -15036,-5019 -28934,-11156 -41840,-18242 -12885,-7086 -24779,-15100 -35767,-23915 -10987,-8815 -21109,-18410 -30431,-28659 -9342,-10207 -17925,-21089 -25833,-32414 -7909,-11346 -15205,-23155 -21954,-35281 -6748,-12148 -12969,-24590 -18790,-37201l-19739 12927 -19739 12949 -19718 12927 -19718 12928 -19739 12948 -19718 12928 -19739 12927 -19718 12949c5820,19718 12948,39731 21447,59639 8499,19907 18389,39752 29735,59069 11367,19360 24189,38213 38593,56244 14403,18010 30368,35176 47998,51098 17630,15922 36905,30621 57931,43696 21025,13075 43822,24568 68433,34037 24610,9469 51077,16956 79462,22080 28386,5104 58711,7866 91040,7866zm-14466454 3358957l14783 0 14763 0 14762 0 14783 0 14762 0 14762 0 14783 0 14763 0 0 -37623 0 -37622 0 -37622 0 -37623 0 -37622 0 -37623 0 -37622 0 -37622 232 0 210 0 211 0 211 0 211 0 211 0 232 0 211 0c4196,6052 8288,11873 12252,17503 3965,5589 7824,11030 11557,16260 3754,5230 7402,10270 10924,15120 3543,4872 6980,9554 10312,14088 3354,4513 6622,8878 9786,13075 3163,4218 6263,8309 9258,12210 2994,3923 5904,7740 8730,11409 2826,3691 5589,7276 8246,10734l18221 23831 18199 23809 18221 23830 18221 23831 18220 23830 18221 23809 18221 23830 18199 23810 18664 0 18642 0 18643 0 18664 0 18642 0 18642 0 18664 0 18643 0 -31908 -39668 -31907 -39668 -31907 -39689 -31908 -39647 -31907 -39668 -31928 -39668 -31908 -39668 -31886 -39668 28892 -35577 28870 -35577 28913 -35576 28870 -35577 28913 -35577 28871 -35577 28891 -35577 28892 -35555 -17904 0 -17884 0 -17904 0 -17883 0 -17905 0 -17904 0 -17883 0 -17884 0 -14024 18537 -14024 18537 -14003 18558 -14003 18537 -14024 18537 -14003 18537 -14024 18537 -14003 18537c-2256,2931 -4977,6474 -8034,10481 -3079,4049 -6517,8583 -10207,13497 -3712,4935 -7698,10249 -11873,15817 -4176,5588 -8541,11451 -13012,17461 -4450,6010 -9047,12168 -13645,18368 -4597,6201 -9236,12464 -13792,18622 -4576,6158 -9089,12252 -13454,18136 -4366,5884 -8583,11599 -12569,16977l-232 0 -211 0 -211 0 -211 0 -232 0 -211 0 -211 0 -210 0 0 -34712 0 -34713 0 -34712 0 -34712 0 -34712 0 -34712 0 -34712 0 -34691 -14763 0 -14783 0 -14762 0 -14762 0 -14783 0 -14762 0 -14763 0 -14783 0 0 34712 0 34712 0 34712 0 34712 0 34712 0 34713 0 34712 0 34691 -211 0 -211 0 -211 0 -231 0 -211 0 -211 0 -211 0 -211 0c-3986,-5378 -8204,-11093 -12569,-16977 -4365,-5884 -8878,-11978 -13455,-18136 -4555,-6158 -9194,-12400 -13792,-18600 -4618,-6222 -9194,-12380 -13665,-18390 -4450,-6010 -8836,-11852 -13033,-17419 -4176,-5589 -8182,-10882 -11894,-15796 -3712,-4913 -7149,-9447 -10207,-13496 -3058,-4028 -5778,-7592 -7972,-10545l-14024 -18537 -14024 -18537 -14003 -18558 -14024 -18537 -14003 -18537 -14024 -18537 -14003 -18537 -14024 -18537 -17883 0 -17904 0 -17884 0 -17904 0 -17883 0 -17905 0 -17883 0 -17883 0 28892 35577 28870 35576 28892 35577 28891 35577 28892 35577 28892 35555 28891 35577 28871 35577 -31908 39668 -31907 39668 -31907 39668 -31908 39668 -31907 39668 -31907 39668 -31908 39668 -31907 39668 18664 0 18642 0 18643 0 18663 0 18643 0 18642 0 18664 0 18642 0 18221 -23831 18221 -23809 18220 -23830 18200 -23831 18221 -23809 18220 -23830 18221 -23830 18221 -23810c2699,-3437 5462,-7022 8288,-10692 2847,-3669 5757,-7486 8751,-11409 2974,-3922 6053,-8013 9216,-12231 3164,-4218 6411,-8583 9743,-13096 3332,-4534 6791,-9216 10313,-14088 3543,-4850 7191,-9911 10924,-15120 3753,-5230 7592,-10650 11577,-16260 3965,-5630 8056,-11451 12253,-17503l211 0 232 0 211 0 211 0 210 0 211 0 211 0 211 0 0 37643 0 37623 0 37622 0 37622 0 37623 0 37601 0 37622 0 37623zm561425 0l44835 0 44856 0 44835 0 44856 0 44834 0 44856 0 44835 0 44835 0 0 -12611 0 -12612 0 -12611 0 -12611 0 -12611 0 -12611 0 -12611 0 -12611 -29862 0 -29862 0 -29862 0 -29861 0 -29862 0 -29841 0 -29861 0 -29862 0 0 -19845 0 -19844 0 -19824 0 -19844 0 -19845 0 -19823 0 -19824 0 -19844 27162 0 27163 0 27162 0 27162 0 27184 0 27162 0 27162 0 27163 0 0 -12168 0 -12190 0 -12189 0 -12168 0 -12189 0 -12190 0 -12168 0 -12168 -27163 0 -27162 0 -27162 0 -27184 0 -27162 0 -27162 0 -27163 0 -27162 0 0 -18115 0 -18116 0 -18115 0 -18094 0 -18115 0 -18116 0 -18115 0 -18094 29545 0 29525 0 29545 0 29524 0 29546 0 29524 0 29545 0 29525 0 0 -12506 0 -12526 0 -12506 0 -12485 0 -12505 0 -12506 0 -12527 0 -12484 -44519 0 -44518 0 -44519 0 -44518 0 -44518 0 -44540 0 -44518 0 -44498 0 0 75245 0 75244 0 75245 0 75224 0 75266 0 75244 0 75224 0 75245zm504486 6052c20161,0 38002,-2847 53797,-8435 15796,-5589 29525,-13940 41482,-24970 11957,-11029 22122,-24758 30790,-41102 8667,-16343 15816,-35302 21721,-56813 5905,-21489 10544,-45551 14235,-72081 3669,-26509 6390,-55527 8351,-86928 2004,-31401 3269,-65228 4112,-101374 823,-36146 1224,-74633 1435,-115397l21890 0 21869 0 21890 0 21890 0 21890 0 21869 0 21890 0 21891 0 0 62633 0 62634 0 62633 0 62634 0 62634 0 62612 0 62634 0 62634 15310 0 15310 0 15290 0 15310 0 15311 0 15310 0 15311 0 15289 0 0 -75245 0 -75245 0 -75245 0 -75244 0 -75245 0 -75245 0 -75223 0 -75245 -51646 0 -51626 0 -51646 0 -51626 0 -51646 0 -51625 0 -51626 0 -51625 0c-316,46796 -759,89775 -1392,129169 -653,39393 -1539,75244 -2783,107700 -1266,32456 -2890,61558 -5020,87497 -2130,25960 -4787,48779 -8055,68665 -3290,19866 -7234,36842 -11937,51098 -4724,14256 -10249,25834 -16660,34902 -6432,9047 -13771,15627 -22185,19950 -8415,4323 -17884,6369 -28576,6369 -1919,0 -3922,-42 -5989,-126 -2066,-85 -4154,-211 -6284,-380 -2109,-148 -4281,-380 -6453,-633 -2151,-253 -4324,-569 -6475,-907 -2151,-337 -4302,-738 -6411,-1181 -2108,-442 -4175,-949 -6200,-1497 -2024,-548 -3985,-1139 -5883,-1792 -1898,-654 -3712,-1350 -5441,-2109l-549 12294 -548 12295 -527 12295 -548 12274 -528 12294 -548 12295 -548 12295 -528 12274c2826,1075 5779,2108 8858,3036 3079,949 6305,1835 9658,2636 3332,802 6812,1540 10397,2215 3585,675 7297,1286 11072,1813 3817,528 7718,992 11704,1413 4007,401 8077,738 12232,1013 4154,253 8393,485 12695,611 4281,127 8667,211 13075,211zm618323 -6052l44856 0 44834 0 44856 0 44835 0 44856 0 44834 0 44856 0 44835 0 0 -12611 0 -12612 0 -12611 0 -12611 0 -12611 0 -12611 0 -12611 0 -12611 -29862 0 -29861 0 -29862 0 -29862 0 -29862 0 -29861 0 -29862 0 -29862 0 0 -19845 0 -19844 0 -19824 0 -19844 0 -19845 0 -19823 0 -19824 0 -19844 27184 0 27162 0 27162 0 27163 0 27162 0 27162 0 27163 0 27162 0 0 -12168 0 -12190 0 -12189 0 -12168 0 -12189 0 -12190 0 -12168 0 -12168 -27162 0 -27163 0 -27162 0 -27162 0 -27163 0 -27162 0 -27162 0 -27184 0 0 -18115 0 -18116 0 -18115 0 -18094 0 -18115 0 -18116 0 -18115 0 -18094 29546 0 29545 0 29524 0 29546 0 29524 0 29545 0 29546 0 29524 0 0 -12506 0 -12526 0 -12506 0 -12485 0 -12505 0 -12506 0 -12527 0 -12484 -44518 0 -44540 0 -44518 0 -44519 0 -44518 0 -44518 0 -44519 0 -44518 0 0 75245 0 75244 0 75245 0 75224 0 75266 0 75244 0 75224 0 75245zm613156 10354c17145,0 33742,-843 49643,-2552 15880,-1729 31127,-4323 45530,-7845 14404,-3521 28006,-7992 40681,-13433 12653,-5441 24357,-11852 35007,-19296 10650,-7424 20224,-15901 28596,-25433 8373,-9533 15543,-20140 21384,-31844 5821,-11726 10334,-24569 13392,-38572 3058,-14024 4639,-29187 4639,-45573 0,-8730 -759,-17377 -2256,-25833 -1497,-8457 -3733,-16703 -6622,-24695 -2910,-7972 -6516,-15690 -10755,-23008 -4239,-7339 -9132,-14298 -14636,-20794 -5483,-6474 -11599,-12505 -18263,-17988 -6685,-5462 -13918,-10397 -21679,-14657 -7740,-4260 -16028,-7887 -24822,-10755 -8751,-2868 -18030,-4998 -27731,-6285l0 -232 0 -211 0 -211 0 -210 0 -211 0 -232 0 -211 0 -211c9068,-2468 17651,-5399 25770,-8710 8098,-3332 15732,-7065 22839,-11177 7128,-4112 13750,-8646 19782,-13518 6073,-4871 11620,-10165 16554,-15753 4956,-5589 9343,-11557 13139,-17841 3796,-6285 7022,-12906 9595,-19824 2594,-6917 4555,-14171 5884,-21700 1328,-7508 2003,-15331 2003,-23430 0,-14445 -1476,-27773 -4323,-40026 -2826,-12274 -7001,-23472 -12379,-33658 -5378,-10165 -12000,-19359 -19676,-27584 -7676,-8203 -16449,-15479 -26150,-21827 -9701,-6347 -20330,-11809 -31781,-16428 -11451,-4597 -23725,-8372 -36673,-11325 -12907,-2952 -26530,-5145 -40680,-6558 -14151,-1434 -28850,-2130 -43949,-2130 -6559,0 -13392,169 -20393,506 -6981,337 -14172,865 -21469,1497 -7275,633 -14699,1434 -22164,2362 -7486,928 -15015,2004 -22523,3185 -7528,1181 -15036,2488 -22480,3901 -7445,1434 -14826,2953 -22059,4555 -7234,1624 -14341,3332 -21258,5125 -6917,1792 -13644,3669 -20118,5609l1181 11873 1181 11852 1202 11852 1181 11852 1181 11852 1181 11873 1202 11852 1181 11852c4196,-2046 8857,-4007 13897,-5884 5019,-1877 10418,-3669 16091,-5335 5673,-1667 11620,-3248 17757,-4703 6136,-1455 12463,-2826 18874,-4028 6411,-1202 12927,-2278 19423,-3227 6516,-949 13054,-1750 19465,-2404 6432,-654 12758,-1160 18916,-1497 6158,-338 12147,-506 17862,-506 6791,0 13687,232 20562,738 6875,527 13750,1349 20414,2509 6685,1160 13223,2679 19465,4598 6242,1940 12210,4323 17714,7128 5526,2826 10629,6136 15163,9975 4534,3859 8541,8266 11831,13243 3290,4977 5905,10587 7676,16850 1772,6243 2742,13181 2742,20836 0,9490 -1413,17989 -4007,25581 -2594,7592 -6369,14277 -11072,20182 -4681,5905 -10333,11008 -16660,15416 -6347,4407 -13391,8140 -20878,11261 -7486,3142 -15437,5673 -23598,7697 -8161,2046 -16576,3607 -24927,4745 -8372,1160 -16723,1940 -24800,2404 -8098,485 -15922,675 -23261,675 -865,0 -1814,0 -2847,0 -1033,0 -2151,-21 -3332,-21 -1160,0 -2425,-21 -3712,-21 -1286,-21 -2636,-42 -4007,-63 -1370,-21 -2783,-63 -4196,-85 -1434,-42 -2889,-105 -4345,-168 -1434,-42 -2889,-127 -4323,-211 -1434,-84 -2868,-169 -4281,-295l0 11430 0 11430 0 11430 0 11430 0 11430 0 11430 0 11430 0 11409c2362,-316 4703,-611 6981,-864 2277,-232 4534,-464 6706,-633 2151,-190 4281,-337 6326,-464 2067,-105 4071,-232 5969,-295 1898,-84 3753,-148 5504,-190 1750,-42 3437,-84 5019,-105 1582,-21 3079,-21 4471,-21 1392,0 2678,-21 3859,-21 6812,0 14108,84 21700,400 7571,295 15437,844 23324,1730 7909,885 15859,2172 23599,3943 7760,1772 15352,4049 22480,6980 7128,2932 13856,6538 19908,10903 6053,4387 11473,9596 15964,15712 4492,6115 8120,13180 10608,21320 2489,8141 3859,17377 3859,27837 0,9280 -1096,17631 -3121,25117 -2024,7508 -4977,14151 -8709,20056 -3712,5904 -8225,11050 -13329,15542 -5103,4471 -10839,8288 -16997,11514 -6158,3227 -12801,5884 -19697,8035 -6917,2151 -14129,3860 -21468,5104 -7318,1265 -14784,2130 -22228,2678 -7444,548 -14868,780 -22080,780 -6474,0 -12991,-168 -19528,-485 -6559,-337 -13138,-843 -19697,-1497 -6559,-654 -13138,-1518 -19655,-2531 -6537,-1012 -13033,-2214 -19486,-3564 -6432,-1370 -12822,-2931 -19106,-4681 -6306,-1730 -12506,-3670 -18579,-5779 -6095,-2130 -12063,-4449 -17863,-6959 -5820,-2510 -11514,-5230 -16997,-8140l-1308 13265 -1286 13264 -1308 13265 -1286 13244 -1286 13265 -1308 13265 -1286 13265 -1287 13243c5821,2067 11894,4007 18200,5821 6305,1835 12864,3543 19591,5145 6749,1582 13708,3079 20836,4429 7128,1350 14446,2594 21890,3691 7466,1096 15100,2066 22839,2910 7761,843 15648,1582 23620,2130 7971,569 16048,1033 24231,1307 8161,296 16428,443 24716,443zm619187 0c22439,0 43865,-1898 64216,-5609 20350,-3691 39625,-9195 57698,-16386 18052,-7213 34944,-16112 50529,-26614 15564,-10503 29862,-22629 42726,-36231 12885,-13602 24357,-28723 34332,-45235 9975,-16513 18453,-34438 25307,-53650 6854,-19233 12105,-39753 15648,-61474 3522,-21721 5356,-44666 5356,-68707 0,-23809 -1771,-46522 -5166,-67990 -3417,-21469 -8499,-41714 -15121,-60652 -6622,-18937 -14846,-36568 -24526,-52785 -9659,-16238 -20815,-31085 -33342,-44413 -12526,-13328 -26445,-25201 -41650,-35471 -15184,-10270 -31696,-18959 -49369,-25981 -17693,-7023 -36568,-12401 -56560,-16007 -19971,-3585 -41081,-5441 -63182,-5441 -23598,0 -45994,1772 -67083,5251 -21089,3480 -40891,8668 -59344,15522 -18453,6832 -35556,15352 -51246,25475 -15690,10123 -29967,21869 -42768,35155 -12801,13265 -24125,28132 -33910,44455 -9786,16344 -18031,34206 -24695,53502 -6643,19318 -11705,40069 -15079,62212 -3374,22164 -5124,45721 -5124,70626 0,23810 1792,46543 5293,68054 3458,21510 8646,41840 15416,60862 6769,19001 15120,36737 24969,53059 9827,16344 21194,31275 33890,44709 12716,13454 26824,25412 42219,35787 15374,10376 32076,19170 49938,26277 17863,7086 36927,12527 57067,16175 20139,3648 41355,5525 63561,5525zm3459 -94014c-12506,0 -24484,-1328 -35851,-3922 -11367,-2573 -22122,-6432 -32224,-11451 -10101,-5019 -19549,-11241 -28280,-18537 -8709,-7318 -16744,-15733 -23957,-25159 -7212,-9427 -13644,-19887 -19254,-31275 -5588,-11409 -10354,-23767 -14214,-36968 -3838,-13223 -6790,-27310 -8794,-42178 -1982,-14889 -3015,-30558 -3015,-46944 0,-16491 1033,-32287 3015,-47281 1983,-14973 4935,-29165 8752,-42493 3817,-13308 8541,-25750 14066,-37243 5547,-11494 11895,-22038 19023,-31570 7106,-9511 14994,-17989 23535,-25349 8541,-7360 17799,-13644 27668,-18706 9849,-5082 20351,-8962 31380,-11577 11030,-2615 22628,-3965 34691,-3965 12632,0 24674,1286 36125,3817 11451,2510 22291,6285 32456,11198 10165,4935 19655,11051 28428,18263 8751,7212 16828,15542 24041,24927 7254,9384 13729,19802 19338,31232 5610,11409 10376,23831 14235,37159 3859,13349 6812,27605 8815,42747 1983,15120 3016,31148 3016,47956 0,16175 -1055,31717 -3079,46500 -2025,14784 -5040,28829 -8942,42051 -3880,13202 -8688,25602 -14319,37074 -5610,11452 -12084,22017 -19275,31549 -7191,9532 -15121,18073 -23746,25497 -8604,7423 -17904,13749 -27795,18895 -9870,5125 -20351,9068 -31338,11726 -11008,2657 -22544,4027 -34501,4027zm408763 83660l24695 0 24695 0 24674 0 24695 0 24674 0 24695 0 24674 0 24695 0c17461,0 34164,-970 50001,-2890 15838,-1940 30853,-4829 44919,-8667 14067,-3817 27205,-8604 39310,-14319 12147,-5715 23282,-12358 33278,-19929 10038,-7571 18959,-16070 26719,-25475 7761,-9406 14362,-19740 19697,-30959 5315,-11198 9406,-23324 12168,-36315 2742,-13011 4155,-26909 4155,-41671 0,-14868 -1392,-28828 -4112,-41798 -2721,-12991 -6812,-25053 -12126,-36167 -5294,-11114 -11873,-21300 -19634,-30537 -7761,-9258 -16702,-17567 -26762,-24948 -10038,-7381 -21215,-13855 -33425,-19359 -12211,-5526 -25433,-10144 -39647,-13813 -14214,-3691 -29398,-6454 -45468,-8288 -16069,-1814 -33046,-2742 -50803,-2742l-9173 0 -9153 0 -9173 0 -9153 0 -9173 0 -9153 0 -9174 0 -9152 0 0 -18221 0 -18241 0 -18221 0 -18200 0 -18220 0 -18221 0 -18221 0 -18199 31591 0 31591 0 31570 0 31591 0 31591 0 31570 0 31591 0 31569 0 0 -12295 0 -12295 0 -12295 0 -12273 0 -12295 0 -12295 0 -12295 0 -12273 -46880 0 -46901 0 -46902 0 -46880 0 -46880 0 -46902 0 -46901 0 -46881 0 0 75245 0 75244 0 75245 0 75224 0 75266 0 75244 0 75224 0 75245zm122463 -90556l0 -22417 0 -22417 0 -22439 0 -22417 0 -22417 0 -22418 0 -22417 0 -22418 7001 0 7023 0 7001 0 7002 0 7022 0 7002 0 7001 0 7002 0c10249,0 19887,401 28913,1224 9004,822 17440,2066 25201,3732 7781,1687 14931,3796 21468,6369 6516,2552 12421,5568 17672,9047 5252,3459 9870,7402 13835,11831 3964,4408 7275,9342 9932,14720 2658,5399 4682,11282 6011,17693 1349,6390 2024,13307 2024,20752 0,8963 -780,17124 -2214,24589 -1455,7445 -3606,14214 -6390,20288 -2784,6094 -6221,11514 -10228,16322 -4007,4809 -8625,9005 -13729,12654 -5124,3627 -10776,6706 -16871,9279 -6116,2573 -12716,4639 -19697,6242 -7001,1603 -14424,2763 -22164,3522 -7761,738 -15880,1096 -24273,1096l-8204 0 -8203 0 -8183 0 -8182 0 -8204 0 -8182 0 -8204 0 -8182 0zm417389 90556l44856 0 44856 0 44834 0 44835 0 44856 0 44835 0 44855 0 44835 0 0 -12611 0 -12612 0 -12611 0 -12611 0 -12611 0 -12611 0 -12611 0 -12611 -29862 0 -29861 0 -29862 0 -29862 0 -29861 0 -29862 0 -29862 0 -29840 0 0 -19845 0 -19844 0 -19824 0 -19844 0 -19845 0 -19823 0 -19824 0 -19844 27162 0 27162 0 27163 0 27162 0 27162 0 27163 0 27162 0 27183 0 0 -12168 0 -12190 0 -12189 0 -12168 0 -12189 0 -12190 0 -12168 0 -12168 -27183 0 -27162 0 -27163 0 -27162 0 -27162 0 -27163 0 -27162 0 -27162 0 0 -18115 0 -18116 0 -18115 0 -18094 0 -18115 0 -18116 0 -18115 0 -18094 29524 0 29545 0 29546 0 29524 0 29524 0 29545 0 29546 0 29524 0 0 -12506 0 -12526 0 -12506 0 -12485 0 -12505 0 -12506 0 -12527 0 -12484 -44518 0 -44519 0 -44518 0 -44540 0 -44518 0 -44518 0 -44519 0 -44518 0 0 75245 0 75244 0 75245 0 75224 0 75266 0 75244 0 75224 0 75245zm593332 0l15416 0 15416 0 15416 0 15416 0 15416 0 15416 0 15416 0 15394 0 0 -62634 0 -62634 0 -62612 0 -62634 0 -62634 0 -62633 0 -62634 0 -62633 20815 0 20815 0 20814 0 20794 0 20814 0 20794 0 20815 0 20793 0 0 -12612 0 -12611 0 -12611 0 -12611 0 -12611 0 -12611 0 -12611 0 -12611 -57024 0 -57045 0 -57024 0 -57024 0 -57024 0 -57024 0 -57024 0 -57024 0 0 12611 0 12611 0 12611 0 12611 0 12611 0 12611 0 12611 0 12612 20814 0 20815 0 20815 0 20793 0 20815 0 20793 0 20815 0 20793 0 0 62633 0 62634 0 62633 0 62634 0 62634 0 62612 0 62634 0 62634zm620917 10354c22418,0 43865,-1898 64215,-5609 20330,-3691 39605,-9195 57678,-16386 18073,-7213 34944,-16112 50529,-26614 15563,-10503 29862,-22629 42747,-36231 12864,-13602 24357,-28723 34311,-45235 9975,-16513 18474,-34438 25328,-53650 6854,-19233 12105,-39753 15627,-61474 3543,-21721 5356,-44666 5356,-68707 0,-23809 -1750,-46522 -5166,-67990 -3417,-21469 -8478,-41714 -15121,-60652 -6622,-18937 -14826,-36568 -24505,-52785 -9680,-16238 -20836,-31085 -33363,-44413 -12526,-13328 -26424,-25201 -41629,-35471 -15205,-10270 -31696,-18959 -49390,-25981 -17672,-7023 -36568,-12401 -56539,-16007 -19992,-3585 -41081,-5441 -63182,-5441 -23598,0 -46016,1772 -67083,5251 -21089,3480 -40912,8668 -59365,15522 -18432,6832 -35556,15352 -51246,25475 -15669,10123 -29967,21869 -42768,35155 -12780,13265 -24104,28132 -33911,44455 -9785,16344 -18030,34206 -24673,53502 -6664,19318 -11705,40069 -15100,62212 -3374,22164 -5103,45721 -5103,70626 0,23810 1792,46543 5272,68054 3479,21510 8667,41840 15416,60862 6769,19001 15141,36737 24969,53059 9848,16344 21194,31275 33910,44709 12717,13454 26825,25412 42220,35787 15374,10376 32076,19170 49938,26277 17863,7086 36927,12527 57046,16175 20139,3648 41376,5525 63582,5525zm3438 -94014c-12485,0 -24463,-1328 -35830,-3922 -11367,-2573 -22143,-6432 -32245,-11451 -10101,-5019 -19549,-11241 -28280,-18537 -8710,-7318 -16723,-15733 -23936,-25159 -7212,-9427 -13665,-19887 -19275,-31275 -5588,-11409 -10354,-23767 -14193,-36968 -3838,-13223 -6811,-27310 -8794,-42178 -1982,-14889 -3015,-30558 -3015,-46944 0,-16491 1033,-32287 2994,-47281 1983,-14973 4935,-29165 8752,-42493 3817,-13308 8562,-25750 14087,-37243 5547,-11494 11894,-22038 19001,-31570 7107,-9511 14995,-17989 23535,-25349 8563,-7360 17799,-13644 27669,-18706 9869,-5082 20351,-8962 31380,-11577 11029,-2615 22628,-3965 34712,-3965 12611,0 24674,1286 36125,3817 11451,2510 22291,6285 32435,11198 10165,4935 19676,11051 28427,18263 8752,7212 16829,15542 24063,24927 7254,9384 13707,19802 19317,31232 5610,11409 10397,23831 14235,37159 3859,13349 6833,27605 8815,42747 1982,15120 3016,31148 3016,47956 0,16175 -1055,31717 -3079,46500 -2004,14784 -5040,28829 -8921,42051 -3901,13202 -8709,25602 -14319,37074 -5631,11452 -12084,22017 -19275,31549 -7191,9532 -15142,18073 -23767,25497 -8583,7423 -17905,13749 -27774,18895 -9870,5125 -20351,9068 -31359,11726 -10987,2657 -22523,4027 -34501,4027zm408784 83660l15290 0 15310 0 15311 0 15310 0 15311 0 15310 0 15310 0 15311 0 0 -32561 0 -32562 0 -32539 0 -32562 0 -32540 0 -32561 0 -32561 0 -32540 30072 0 30073 0 30073 0 30072 0 30073 0 30093 0 30073 0 30073 0 0 32561 0 32540 0 32561 0 32562 0 32540 0 32561 0 32561 0 32540 15310 0 15289 0 15311 0 15310 0 15311 0 15310 0 15311 0 15310 0 0 -75245 0 -75245 0 -75245 0 -75244 0 -75245 0 -75245 0 -75223 0 -75245 -15310 0 -15311 0 -15310 0 -15311 0 -15310 0 -15311 0 -15310 0 -15289 0 0 29967 0 29967 0 29967 0 29967 0 29968 0 29967 0 29967 0 29967 -30094 0 -30073 0 -30072 0 -30073 0 -30072 0 -30073 0 -30094 0 -30051 0 0 -29967 0 -29967 0 -29967 0 -29968 0 -29967 0 -29967 0 -29967 0 -29967 -15311 0 -15310 0 -15310 0 -15311 0 -15310 0 -15311 0 -15310 0 -15290 0 0 75245 0 75244 0 75245 0 75224 0 75266 0 75244 0 75224 0 75245zm630407 0l15289 0 15311 0 15310 0 15311 0 15310 0 15311 0 15310 0 15289 0 0 -32561 0 -32562 0 -32539 0 -32562 0 -32540 0 -32561 0 -32561 0 -32540 30094 0 30073 0 30072 0 30073 0 30072 0 30094 0 30073 0 30072 0 0 32561 0 32540 0 32561 0 32562 0 32540 0 32561 0 32561 0 32540 15311 0 15289 0 15311 0 15310 0 15310 0 15311 0 15310 0 15311 0 0 -75245 0 -75245 0 -75245 0 -75244 0 -75245 0 -75245 0 -75223 0 -75245 -15311 0 -15310 0 -15311 0 -15310 0 -15310 0 -15311 0 -15310 0 -15290 0 0 29967 0 29967 0 29967 0 29967 0 29968 0 29967 0 29967 0 29967 -30093 0 -30073 0 -30073 0 -30072 0 -30073 0 -30072 0 -30094 0 -30073 0 0 -29967 0 -29967 0 -29967 0 -29968 0 -29967 0 -29967 0 -29967 0 -29967 -15289 0 -15310 0 -15311 0 -15310 0 -15311 0 -15310 0 -15311 0 -15289 0 0 75245 0 75244 0 75245 0 75224 0 75266 0 75244 0 75224 0 75245zm630407 0l23598 0 23619 0 23599 0 23598 0 23619 0 23599 0 23619 0 23599 0c17461,0 34163,-949 50022,-2868 15838,-1920 30832,-4809 44898,-8647 14066,-3838 27205,-8667 39331,-14446 12126,-5778 23240,-12547 33278,-20287 10017,-7719 18959,-16449 26719,-26129 7761,-9701 14362,-20372 19676,-32034 5336,-11641 9427,-24315 12168,-37960 2742,-13623 4155,-28259 4155,-43906 0,-15627 -1392,-30200 -4113,-43760 -2741,-13539 -6811,-26065 -12104,-37559 -5315,-11493 -11916,-21974 -19655,-31464 -7761,-9490 -16703,-18010 -26741,-25518 -10059,-7507 -21215,-14045 -33425,-19633 -12190,-5568 -25455,-10207 -39647,-13898 -14214,-3669 -29398,-6432 -45468,-8246 -16069,-1834 -33046,-2741 -50824,-2741l-8077 0 -8098 0 -8077 0 -8077 0 -8098 0 -8077 0 -8098 0 -8077 0 0 -29103 0 -29102 0 -29124 0 -29102 0 -29103 0 -29102 0 -29103 0 -29102 -15289 0 -15311 0 -15310 0 -15311 0 -15310 0 -15311 0 -15310 0 -15289 0 0 75245 0 75244 0 75245 0 75224 0 75266 0 75244 0 75224 0 75245zm122441 -94858l0 -22754 0 -22734 0 -22755 0 -22734 0 -22754 0 -22734 0 -22755 0 -22734 5947 0 5926 0 5926 0 5926 0 5926 0 5926 0 5926 0 5926 0c10249,0 19907,359 28891,1118 9026,738 17441,1919 25222,3501 7782,1582 14952,3585 21469,6073 6516,2468 12421,5399 17672,8816 5251,3416 9891,7338 13834,11767 3965,4429 7297,9406 9954,14910 2658,5525 4661,11620 5990,18263 1349,6664 2024,13918 2024,21784 0,9490 -759,18095 -2214,25897 -1455,7803 -3606,14826 -6390,21089 -2784,6242 -6200,11768 -10228,16639 -4007,4872 -8604,9089 -13729,12696 -5103,3606 -10776,6622 -16871,9110 -6116,2510 -12717,4492 -19697,6010 -6980,1519 -14404,2573 -22164,3269 -7761,696 -15880,1012 -24273,1012l-7107 0 -7107 0 -7128 0 -7107 0 -7128 0 -7107 0 -7107 0 -7128 0zm360491 94858l15311 0 15310 0 15311 0 15289 0 15311 0 15310 0 15311 0 15289 0 0 -75245 0 -75245 0 -75245 0 -75244 0 -75245 0 -75245 0 -75223 0 -75245 -15311 0 -15310 0 -15289 0 -15311 0 -15310 0 -15311 0 -15310 0 -15290 0 0 75245 0 75244 0 75245 0 75224 0 75266 0 75244 0 75224 0 75245zm267322 0l16386 0 16407 0 16386 0 16365 0 16386 0 16386 0 16386 0 16386 0 32118 -56708 32139 -56687 32118 -56707 32118 -56708 32140 -56708 32118 -56686 32118 -56708 32118 -56708 232 0 211 0 211 0 211 0 232 0 211 0 211 0 211 0c-422,7466 -865,15690 -1287,24526 -422,8815 -843,18263 -1244,28112 -401,9848 -801,20118 -1181,30600 -359,10460 -717,21194 -1033,31907 -317,10713 -612,21468 -865,32055 -274,10586 -506,21025 -696,31085 -169,10059 -337,19781 -443,28933 -84,9153 -147,17799 -147,25623l0 27605 0 27606 0 27605 0 27584 0 27605 0 27584 0 27606 0 27584 14867 0 14889 0 14867 0 14868 0 14889 0 14867 0 14889 0 14868 0 0 -75245 0 -75245 0 -75245 0 -75244 0 -75245 0 -75245 0 -75223 0 -75245 -16724 0 -16702 0 -16702 0 -16703 0 -16723 0 -16703 0 -16702 0 -16702 0 -31823 56708 -31802 56686 -31781 56708 -31802 56708 -31801 56707 -31802 56687 -31802 56708 -31802 56686 -211 0 -232 0 -211 0 -211 0 -211 0 -210 0 -211 0 -211 0c422,-7423 864,-15669 1265,-24505 422,-8836 844,-18284 1244,-28111 401,-9849 802,-20119 1160,-30600 380,-10481 738,-21194 1055,-31907 316,-10713 632,-21469 885,-32055 253,-10587 485,-21026 675,-31085 190,-10060 338,-19760 443,-28913 106,-9174 169,-17778 169,-25665l0 -27584 0 -27605 0 -27605 0 -27585 0 -27605 0 -27584 0 -27605 0 -27584 -14889 0 -14867 0 -14889 0 -14868 0 -14888 0 -14868 0 -14889 0 -14867 0 0 75245 0 75244 0 75245 0 75224 0 75266 0 75244 0 75224 0 75245zm247498 -642470c10460,0 20308,-949 29587,-2699 9279,-1751 17968,-4302 26087,-7529 8140,-3226 15732,-7128 22755,-11556 7043,-4429 13560,-9406 19570,-14763 6010,-5356 11515,-11113 16555,-17145 5019,-6010 9574,-12295 13644,-18706 4091,-6411 7719,-12927 10945,-19464 3206,-6517 5968,-13012 8351,-19381l-6579 -4323 -6580 -4302 -6580 -4324 -6579 -4302 -6580 -4323 -6580 -4302 -6579 -4323 -6559 -4302c-2046,3880 -4260,7781 -6622,11662 -2383,3859 -4935,7697 -7718,11409 -2763,3711 -5758,7339 -8984,10755 -3206,3438 -6685,6727 -10418,9722 -3733,3016 -7761,5821 -12105,8267 -4323,2467 -8984,4618 -13940,6390 -4977,1771 -10312,3184 -15985,4133 -5694,970 -11768,1476 -18242,1476 -6664,0 -12885,-464 -18706,-1349 -5799,-907 -11198,-2215 -16196,-3881 -5019,-1687 -9658,-3732 -13960,-6094 -4303,-2341 -8267,-5041 -11916,-7972 -3669,-2931 -7043,-6137 -10143,-9532 -3100,-3416 -5990,-7044 -8626,-10819 -2636,-3774 -5061,-7718 -7296,-11767 -2257,-4028 -4345,-8204 -6285,-12400l-6579 4323 -6580 4302 -6580 4323 -6580 4302 -6579 4324 -6559 4302 -6580 4323 -6579 4302c1961,6580 4323,13244 7149,19887 2847,6643 6158,13243 9912,19697 3796,6432 8077,12716 12885,18726 4787,5990 10122,11747 15985,17040 5884,5314 12316,10207 19317,14572 7002,4345 14615,8183 22797,11346 8204,3142 17019,5652 26488,7360 9469,1708 19570,2615 30347,2615zm744243 652824c17146,0 33742,-843 49643,-2552 15901,-1729 31127,-4323 45531,-7845 14425,-3521 28006,-7992 40680,-13433 12654,-5441 24379,-11852 35008,-19296 10649,-7424 20224,-15901 28596,-25433 8372,-9533 15542,-20140 21384,-31844 5842,-11726 10355,-24569 13391,-38572 3058,-14024 4661,-29187 4661,-45573 0,-8730 -780,-17377 -2278,-25833 -1497,-8457 -3711,-16703 -6621,-24695 -2911,-7972 -6517,-15690 -10735,-23008 -4238,-7339 -9152,-14298 -14656,-20794 -5483,-6474 -11599,-12505 -18263,-17988 -6664,-5462 -13898,-10397 -21658,-14657 -7761,-4260 -16049,-7887 -24822,-10755 -8773,-2868 -18031,-4998 -27753,-6285l0 -232 0 -211 0 -211 0 -210 0 -211 0 -232 0 -211 0 -211c9068,-2468 17652,-5399 25771,-8710 8098,-3332 15753,-7065 22860,-11177 7107,-4112 13729,-8646 19781,-13518 6074,-4871 11599,-10165 16555,-15753 4935,-5589 9321,-11557 13138,-17841 3796,-6285 7002,-12906 9596,-19824 2572,-6917 4534,-14171 5862,-21700 1329,-7508 2004,-15331 2004,-23430 0,-14445 -1476,-27773 -4302,-40026 -2847,-12274 -7023,-23472 -12401,-33658 -5377,-10165 -11999,-19359 -19675,-27584 -7656,-8203 -16450,-15479 -26150,-21827 -9680,-6347 -20330,-11809 -31781,-16428 -11451,-4597 -23725,-8372 -36652,-11325 -12928,-2952 -26551,-5145 -40702,-6558 -14129,-1434 -28849,-2130 -43928,-2130 -6579,0 -13412,169 -20393,506 -7001,337 -14192,865 -21468,1497 -7297,633 -14720,1434 -22185,2362 -7466,928 -15016,2004 -22523,3185 -7508,1181 -15015,2488 -22460,3901 -7444,1434 -14846,2953 -22059,4555 -7233,1624 -14361,3332 -21278,5125 -6917,1792 -13645,3669 -20119,5609l1202 11873 1181 11852 1181 11852 1181 11852 1202 11852 1181 11873 1181 11852 1181 11852c4197,-2046 8879,-4007 13898,-5884 5040,-1877 10439,-3669 16090,-5335 5673,-1667 11641,-3248 17757,-4703 6137,-1455 12464,-2826 18875,-4028 6411,-1202 12927,-2278 19443,-3227 6496,-949 13033,-1750 19444,-2404 6432,-654 12759,-1160 18917,-1497 6179,-338 12168,-506 17862,-506 6791,0 13708,232 20562,738 6875,527 13750,1349 20414,2509 6706,1160 13243,2679 19465,4598 6242,1940 12210,4323 17714,7128 5525,2826 10629,6136 15163,9975 4555,3859 8541,8266 11831,13243 3290,4977 5905,10587 7676,16850 1793,6243 2742,13181 2742,20836 0,9490 -1413,17989 -4007,25581 -2573,7592 -6369,14277 -11051,20182 -4703,5905 -10354,11008 -16681,15416 -6348,4407 -13391,8140 -20878,11261 -7486,3142 -15416,5673 -23598,7697 -8162,2046 -16555,3607 -24927,4745 -8351,1160 -16724,1940 -24801,2404 -8098,485 -15922,675 -23260,675 -844,0 -1814,0 -2847,0 -1013,0 -2152,-21 -3333,-21 -1159,0 -2404,-21 -3711,-21 -1287,-21 -2636,-42 -4007,-63 -1371,-21 -2763,-63 -4197,-85 -1434,-42 -2889,-105 -4323,-168 -1434,-42 -2889,-127 -4344,-211 -1434,-84 -2868,-169 -4281,-295l0 11430 0 11430 0 11430 0 11430 0 11430 0 11430 0 11430 0 11409c2383,-316 4703,-611 7001,-864 2257,-232 4513,-464 6685,-633 2173,-190 4303,-337 6348,-464 2046,-105 4049,-232 5947,-295 1919,-84 3775,-148 5504,-190 1772,-42 3438,-84 5019,-105 1582,-21 3101,-21 4471,-21 1392,0 2700,-21 3881,-21 6790,0 14108,84 21679,400 7571,295 15437,844 23345,1730 7887,885 15838,2172 23599,3943 7739,1772 15331,4049 22459,6980 7149,2932 13855,6538 19908,10903 6052,4387 11472,9596 15964,15712 4513,6115 8119,13180 10608,21320 2488,8141 3859,17377 3859,27837 0,9280 -1097,17631 -3121,25117 -2004,7508 -4977,14151 -8689,20056 -3732,5904 -8224,11050 -13328,15542 -5103,4471 -10839,8288 -17019,11514 -6157,3227 -12800,5884 -19696,8035 -6918,2151 -14130,3860 -21448,5104 -7339,1265 -14804,2130 -22248,2678 -7424,548 -14847,780 -22080,780 -6453,0 -12991,-168 -19528,-485 -6559,-337 -13118,-843 -19697,-1497 -6559,-654 -13118,-1518 -19655,-2531 -6538,-1012 -13033,-2214 -19486,-3564 -6432,-1370 -12801,-2931 -19107,-4681 -6284,-1730 -12505,-3670 -18579,-5779 -6073,-2130 -12041,-4449 -17862,-6959 -5820,-2510 -11493,-5230 -16998,-8140l-1307 13265 -1286 13264 -1287 13265 -1307 13244 -1287 13265 -1286 13265 -1308 13265 -1286 13243c5820,2067 11915,4007 18221,5821 6305,1835 12864,3543 19570,5145 6769,1582 13708,3079 20836,4429 7128,1350 14445,2594 21911,3691 7465,1096 15078,2066 22818,2910 7761,843 15648,1582 23619,2130 7972,569 16070,1033 24231,1307 8162,296 16429,443 24716,443zm277697 -10354l15627 0 15648 0 15627 0 15627 0 15626 0 15627 0 15648 0 15627 0 6579 -17356 6559 -17356 6580 -17357 6579 -17356 6580 -17356 6559 -17356 6579 -17356 6580 -17335 31359 0 31380 0 31359 0 31380 0 31380 0 31359 0 31381 0 31359 0 6579 17356 6559 17356 6601 17356 6558 17356 6580 17357 6580 17356 6579 17356 6559 17335 16512 0 16471 0 16491 0 16492 0 16512 0 16492 0 16491 0 16491 0 -29988 -75245 -29967 -75245 -29967 -75245 -29967 -75244 -29967 -75245 -29946 -75245 -29968 -75223 -29967 -75245 -17145 0 -17145 0 -17145 0 -17124 0 -17146 0 -17145 0 -17145 0 -17124 0 -29545 75245 -29546 75244 -29524 75245 -29545 75224 -29546 75266 -29524 75244 -29545 75224 -29525 75245zm208695 -230248l6242 -17588 6263 -17567 6243 -17567 6263 -17566 6263 -17567 6243 -17588 6263 -17567 6242 -17567c1624,-4513 3396,-9575 5251,-14973 1856,-5420 3839,-11220 5863,-17230 2025,-6010 4112,-12274 6200,-18621 2109,-6369 4218,-12822 6285,-19233 2066,-6411 4112,-12801 6073,-18980 1962,-6200 3860,-12232 5610,-17926 1750,-5694 3395,-11071 4850,-15985 1455,-4935 2784,-9427 3838,-13307l232 0 211 0 211 0 211 0 211 0 232 0 211 0 211 0c970,3880 2151,8372 3479,13307 1329,4914 2826,10313 4450,15985 1603,5715 3353,11726 5167,17926 1814,6200 3733,12569 5673,18980 1919,6411 3922,12864 5884,19212 1982,6368 3985,12632 5904,18642 1941,6032 3860,11810 5673,17230 1814,5398 3543,10460 5167,14973l6242 17588 6264 17567 6242 17567 6263 17567 6264 17566 6242 17589 6263 17566 6243 17567 -23409 0 -23387 0 -23409 0 -23366 0 -23409 0 -23387 0 -23388 0 -23387 0zm485527 230248l23387 0 23409 0 23387 0 23387 0 23388 0 23387 0 23409 0 23387 0c14868,0 29736,-612 44329,-1941 14593,-1328 28934,-3374 42789,-6200 13876,-2847 27268,-6474 39942,-11008 12675,-4513 24674,-9933 35703,-16323 11051,-6369 21174,-13750 30136,-22185 8963,-8414 16787,-17926 23198,-28554 6432,-10650 11493,-22460 14910,-35514 3458,-13054 5272,-27352 5272,-42979 0,-9911 -823,-19422 -2425,-28470 -1603,-9047 -4007,-17672 -7149,-25812 -3164,-8119 -7086,-15775 -11705,-22924 -4618,-7149 -9975,-13813 -16006,-19929 -6031,-6115 -12759,-11683 -20140,-16702 -7381,-5019 -15416,-9511 -24062,-13370 -8625,-3880 -17904,-7170 -27774,-9828 -9870,-2678 -20308,-4723 -31296,-6136l0 -211 0 -211 0 -211 0 -232 0 -211 0 -211 0 -211 0 -211c10460,-2151 20246,-4871 29398,-8055 9110,-3206 17609,-6918 25433,-11093 7803,-4176 14973,-8815 21490,-13898 6495,-5082 12379,-10628 17567,-16554 5187,-5926 9743,-12274 13644,-18959 3880,-6706 7149,-13792 9722,-21194 2594,-7403 4555,-15142 5841,-23198 1308,-8035 1941,-16407 1941,-25032 0,-13898 -1371,-26762 -4071,-38572 -2678,-11831 -6685,-22649 -11894,-32476 -5209,-9849 -11641,-18748 -19211,-26699 -7571,-7950 -16281,-14994 -26045,-21152 -9743,-6179 -20562,-11472 -32329,-15964 -11768,-4471 -24505,-8161 -38150,-11029 -13602,-2890 -28111,-5020 -43422,-6411 -15289,-1392 -31422,-2067 -48230,-2067l-23071 0 -23071 0 -23071 0 -23071 0 -23071 0 -23071 0 -23071 0 -23050 0 0 75245 0 75244 0 75245 0 75224 0 75266 0 75244 0 75224 0 75245zm117274 -90556l0 -21658 0 -21679 0 -21658 0 -21658 0 -21680 0 -21658 0 -21679 0 -21658 4218 0 4197 0 4217 0 4197 0 4197 0 4218 0 4196 0 4197 0c12843,0 24821,379 35956,1160 11156,780 21447,1982 30916,3585 9490,1603 18137,3648 25982,6137 7845,2488 14888,5441 21088,8857 6222,3416 11663,7318 16281,11704 4640,4408 8499,9343 11536,14762 3079,5441 5356,11409 6875,17926 1518,6516 2277,13602 2277,21236 0,7887 -717,15163 -2193,21869 -1455,6728 -3670,12864 -6622,18453 -2931,5588 -6643,10650 -11093,15184 -4471,4534 -9679,8562 -15648,12084 -5989,3543 -12737,6579 -20266,9152 -7529,2552 -15838,4682 -24927,6327 -9110,1666 -19001,2889 -29672,3690 -10692,823 -22185,1202 -34459,1202l-4956 0 -4955 0 -4977 0 -4935 0 -4956 0 -4977 0 -4956 0 -4956 0zm0 -257831l0 -20498 0 -20477 0 -20478 0 -20477 0 -20498 0 -20477 0 -20477 0 -20478 5504 0 5505 0 5504 0 5483 0 5504 0 5504 0 5504 0 5483 0c8731,0 17293,253 25539,760 8267,527 16280,1370 23872,2572 7635,1202 14889,2784 21680,4809 6790,2024 13138,4492 18916,7486 5800,2974 11051,6495 15648,10587 4619,4091 8604,8815 11852,14150 3248,5378 5778,11388 7487,18158 1708,6748 2636,14235 2636,22544 0,8625 -886,16386 -2615,23366 -1709,6980 -4260,13180 -7571,18664 -3311,5504 -7402,10312 -12190,14488 -4787,4175 -10291,7739 -16428,10755 -6158,3015 -12948,5483 -20329,7507 -7360,2025 -15332,3585 -23831,4766 -8477,1181 -17503,2004 -26972,2510 -9490,506 -19444,738 -29777,738l-3986 0 -3986 0 -3986 0 -3986 0 -4006 0 -3965 0 -4007 0 -3986 0zm686461 358741c22438,0 43864,-1898 64215,-5609 20351,-3691 39626,-9195 57699,-16386 18052,-7213 34944,-16112 50529,-26614 15563,-10503 29861,-22629 42726,-36231 12885,-13602 24357,-28723 34332,-45235 9975,-16513 18453,-34438 25307,-53650 6853,-19233 12105,-39753 15647,-61474 3522,-21721 5357,-44666 5357,-68707 0,-23809 -1750,-46522 -5167,-67990 -3416,-21469 -8498,-41714 -15120,-60652 -6622,-18937 -14847,-36568 -24527,-52785 -9658,-16238 -20814,-31085 -33341,-44413 -12527,-13328 -26445,-25201 -41650,-35471 -15184,-10270 -31697,-18959 -49369,-25981 -17694,-7023 -36568,-12401 -56560,-16007 -19971,-3585 -41081,-5441 -63182,-5441 -23598,0 -45995,1772 -67084,5251 -21088,3480 -40891,8668 -59343,15522 -18453,6832 -35556,15352 -51246,25475 -15690,10123 -29967,21869 -42768,35155 -12801,13265 -24126,28132 -33911,44455 -9785,16344 -18031,34206 -24695,53502 -6643,19318 -11704,40069 -15078,62212 -3374,22164 -5104,45721 -5104,70626 0,23810 1793,46543 5272,68054 3459,21510 8647,41840 15416,60862 6770,19001 15121,36737 24969,53059 9828,16344 21195,31275 33890,44709 12717,13454 26825,25412 42220,35787 15374,10376 32097,19170 49938,26277 17862,7086 36948,12527 57066,16175 20140,3648 41355,5525 63562,5525zm3458 -94014c-12505,0 -24484,-1328 -35850,-3922 -11367,-2573 -22123,-6432 -32224,-11451 -10102,-5019 -19549,-11241 -28280,-18537 -8710,-7318 -16745,-15733 -23957,-25159 -7212,-9427 -13644,-19887 -19254,-31275 -5589,-11409 -10355,-23767 -14214,-36968 -3838,-13223 -6790,-27310 -8773,-42178 -2003,-14889 -3016,-30558 -3016,-46944 0,-16491 1013,-32287 2995,-47281 1982,-14973 4935,-29165 8752,-42493 3817,-13308 8541,-25750 14066,-37243 5546,-11494 11915,-22038 19022,-31570 7107,-9511 14994,-17989 23535,-25349 8562,-7360 17799,-13644 27669,-18706 9848,-5082 20350,-8962 31380,-11577 11029,-2615 22628,-3965 34691,-3965 12632,0 24695,1286 36125,3817 11451,2510 22291,6285 32456,11198 10164,4935 19654,11051 28427,18263 8752,7212 16829,15542 24062,24927 7234,9384 13708,19802 19318,31232 5609,11409 10375,23831 14235,37159 3859,13349 6832,27605 8815,42747 1982,15120 3016,31148 3016,47956 0,16175 -1055,31717 -3079,46500 -2025,14784 -5041,28829 -8942,42051 -3880,13202 -8689,25602 -14319,37074 -5610,11452 -12084,22017 -19275,31549 -7192,9532 -15121,18073 -23746,25497 -8605,7423 -17905,13749 -27795,18895 -9870,5125 -20351,9068 -31338,11726 -11009,2657 -22544,4027 -34502,4027zm324261 215612l14003 0 14024 0 14024 0 14003 0 14003 0 14024 0 14003 0 14024 0 0 -16512 0 -16492 0 -16491 0 -16492 0 -16491 0 -16492 0 -16491 0 -16491 48610 0 48631 0 48609 0 48610 0 48631 0 48609 0 48610 0 48609 0 0 16512 0 16492 0 16470 0 16491 0 16513 0 16491 0 16492 0 16491 14024 0 14024 0 14003 0 14024 0 14003 0 14024 0 14024 0 14003 0 0 -29334 0 -29314 0 -29334 0 -29314 0 -29313 0 -29313 0 -29335 0 -29313 -8309 0 -8309 0 -8287 0 -8309 0 -8309 0 -8288 0 -8309 0 -8288 0 0 -62423 0 -62402 0 -62423 0 -62422 0 -62423 0 -62402 0 -62423 0 -62401 -51752 0 -51752 0 -51731 0 -51751 0 -51731 0 -51752 0 -51731 0 -51752 0 0 23809 0 23830 0 23831 0 23830 0 23809 0 23831 0 23830 0 23809c0,15205 -400,30241 -1181,45046 -801,14783 -1982,29397 -3585,43717 -1581,14319 -3585,28385 -6010,42135 -2404,13750 -5272,27205 -8520,40280 -3248,13117 -6938,25854 -11050,38212 -4113,12337 -8689,24316 -13666,35830 -4998,11515 -10418,22586 -16302,33194 -5883,10608 -12231,20730 -19022,30326l-6685 0 -6685 0 -6685 0 -6685 0 -6685 0 -6664 0 -6686 0 -6685 0 0 29334 0 29314 0 29334 0 29313 0 29314 0 29313 0 29335 0 29313zm179360 -234570c5610,-9153 10882,-18790 15775,-28871 4913,-10038 9469,-20561 13665,-31422 4197,-10882 8056,-22164 11557,-33763 3501,-11620 6664,-23578 9448,-35830 2805,-12253 5272,-24822 7360,-37665 2109,-12801 3859,-25918 5251,-39204 1413,-13307 2446,-26846 3163,-40553 675,-13687 1055,-27584 1055,-41587l0 -13708 0 -13687 0 -13686 0 -13687 0 -13687 0 -13707 0 -13687 0 -13686 22206 0 22206 0 22207 0 22206 0 22207 0 22206 0 22207 0 22206 0 0 49811 0 49812 0 49812 0 49790 0 49812 0 49790 0 49812 0 49791 -30621 0 -30620 0 -30600 0 -30621 0 -30621 0 -30621 0 -30600 0 -30621 0z"/>
 </g>
</svg>
